<svg xmlns="http://www.w3.org/2000/svg" viewBox="0 0 700 700">
  <path
    d="M315 6.1c-5.8 3.4-12.5 7.3-14.9 8.6-2.4 1.4-13.4 7.8-24.5 14.2-11 6.5-22.1 12.9-24.6 14.3-2.5 1.4-14.6 8.4-27 15.5s-29.7 17-38.5 22C168.8 90.1 23.9 174 23 174.7c-.6.6-.6 349.3 0 350.2.4.6 18.3 11.2 30.5 18.1 1.7.9 14 8 27.5 15.7 13.5 7.7 26.3 15.1 28.5 16.3 2.2 1.2 4.5 2.6 5 3 .6.4 3 1.9 5.5 3.2 2.5 1.4 7.4 4.2 11 6.3 3.6 2.1 8.1 4.6 10 5.7 12.1 6.9 17 10 17 10.7 0 .4 1.2 1.4 2.7 2.2 1.5.8 9.7 5.4 18.3 10.3 8.5 4.9 17.5 10 20 11.4 2.5 1.4 20 11.4 39 22.2 19 10.8 37.2 21.2 40.5 23.1 3.4 1.9 15.4 8.7 26.8 15.3l20.7 11.8 26.7-15.5c49.1-28.4 96.7-55.9 101.3-58.5 2.5-1.4 11.5-6.6 20-11.5 8.5-5 18.4-10.7 22-12.7 3.6-2 18-10.3 32-18.5 33-19.1 50.9-29.5 54-31.1 1.4-.8 12.4-7.1 24.5-14.2l22-12.7v-351L591 152.8c-20.6-12-38.6-22.4-40-23.1-1.4-.7-18.7-10.7-38.5-22.2-19.8-11.4-38-21.9-40.5-23.3-2.5-1.3-8.1-4.6-12.5-7.2-7-4.1-41.7-24.2-51.5-29.8-1.9-1-13.4-7.7-25.5-14.7-12.1-7-24-13.9-26.5-15.3-2.5-1.4-7.4-4.2-10.9-6.4-3.4-2.1-6.6-3.8-7-3.8-.3 0-3.1-1.6-6.1-3.5-3-1.9-5.7-3.5-6-3.5-.3 0-5.2 2.8-11 6.1z"/>
</svg>
