<svg width="24" height="18" viewBox="0 0 24 18" fill="none" xmlns="http://www.w3.org/2000/svg">
<path d="M15.0008 0.75C13.4687 0.751176 11.967 1.17857 10.6639 1.98437C9.3607 2.79017 8.3074 3.94262 7.62176 5.31281C6.80609 5.19385 5.97467 5.24424 5.17934 5.46082C4.38401 5.67741 3.64184 6.05555 2.99912 6.57166C2.3564 7.08777 1.82692 7.73077 1.4437 8.46057C1.06048 9.19036 0.831747 9.99129 0.771766 10.8134C0.711785 11.6355 0.821843 12.4612 1.09507 13.2388C1.36831 14.0165 1.79885 14.7296 2.35985 15.3335C2.92085 15.9375 3.60028 16.4193 4.35575 16.749C5.11122 17.0788 5.92653 17.2493 6.75082 17.25H15.0008C17.1889 17.25 19.2873 16.3808 20.8345 14.8336C22.3816 13.2865 23.2508 11.188 23.2508 9C23.2508 6.81196 22.3816 4.71354 20.8345 3.16637C19.2873 1.61919 17.1889 0.75 15.0008 0.75ZM15.0008 15.75H6.75082C5.55735 15.75 4.41275 15.2759 3.56884 14.432C2.72493 13.5881 2.25082 12.4435 2.25082 11.25C2.25082 10.0565 2.72493 8.91193 3.56884 8.06802C4.41275 7.22411 5.55735 6.75 6.75082 6.75C6.85394 6.75 6.95707 6.75 7.05926 6.76031C6.85415 7.48918 6.75037 8.24282 6.75082 9C6.75082 9.19891 6.82984 9.38968 6.97049 9.53033C7.11114 9.67098 7.30191 9.75 7.50082 9.75C7.69973 9.75 7.8905 9.67098 8.03115 9.53033C8.1718 9.38968 8.25082 9.19891 8.25082 9C8.25082 7.66498 8.6467 6.35993 9.3884 5.2499C10.1301 4.13987 11.1843 3.2747 12.4177 2.76381C13.6511 2.25292 15.0083 2.11925 16.3177 2.3797C17.6271 2.64015 18.8298 3.28302 19.7738 4.22703C20.7178 5.17103 21.3607 6.37377 21.6211 7.68314C21.8816 8.99251 21.7479 10.3497 21.237 11.5831C20.7261 12.8165 19.861 13.8707 18.7509 14.6124C17.6409 15.3541 16.3358 15.75 15.0008 15.75Z" fill="url(#paint0_linear_145_57)"/>
<defs>
<linearGradient id="paint0_linear_145_57" x1="2.94108" y1="0.979171" x2="22.6465" y2="2.56925" gradientUnits="userSpaceOnUse">
<stop stop-color="#1BD0DB"/>
<stop offset="1" stop-color="#409CF0"/>
</linearGradient>
</defs>
</svg>
