<svg width="24" height="24" viewBox="0 0 24 24" fill="none" xmlns="http://www.w3.org/2000/svg">
<g clip-path="url(#clip0_1_423)">
<path d="M20.6612 19.3764C10.946 24 4.91668 20.1315 1.05711 17.7819C0.818283 17.6338 0.412358 17.8165 0.764554 18.2211C2.05037 19.7802 6.26426 23.538 11.7646 23.538C17.2687 23.538 20.5432 20.5347 20.9528 20.0108C21.3597 19.4913 21.0723 19.2047 20.6611 19.3764H20.6612ZM23.3897 17.8695C23.1288 17.5298 21.8032 17.4665 20.9691 17.5689C20.1336 17.6685 18.8795 18.1791 18.9885 18.4857C19.0445 18.6005 19.1587 18.549 19.7326 18.4974C20.3081 18.44 21.9204 18.2365 22.2563 18.6757C22.5939 19.1179 21.7421 21.2244 21.5866 21.5641C21.4363 21.9039 21.644 21.9915 21.9263 21.7652C22.2047 21.539 22.7088 20.9533 23.0471 20.1243C23.383 19.2909 23.588 18.1282 23.3897 17.8695Z" fill="#FF9900"/>
<path fill-rule="evenodd" clip-rule="evenodd" d="M14.1287 9.94199C14.1287 11.1551 14.1593 12.1669 13.5461 13.2442C13.0512 14.1202 12.2673 14.6589 11.3913 14.6589C10.1956 14.6589 9.49927 13.7479 9.49927 12.4034C9.49927 9.74922 11.8774 9.2675 14.1287 9.2675V9.94199ZM17.2689 17.5321C17.063 17.716 16.7652 17.7292 16.5331 17.6065C15.4995 16.7481 15.3155 16.3495 14.7462 15.5305C13.0381 17.2737 11.8293 17.7948 9.61319 17.7948C6.99411 17.7948 4.95312 16.1787 4.95312 12.9421C4.95312 10.415 6.32406 8.69374 8.27291 7.85291C9.96354 7.10826 12.3242 6.97689 14.1287 6.77111V6.36814C14.1287 5.62793 14.1855 4.75201 13.752 4.11261C13.3709 3.53885 12.6439 3.30233 12.0044 3.30233C10.8176 3.30233 9.75767 3.91108 9.49927 5.17243C9.44665 5.4528 9.24087 5.72874 8.96059 5.74185L5.93853 5.41782C5.68457 5.36076 5.40429 5.15498 5.47436 4.76512C6.17072 1.10376 9.47729 0 12.438 0C13.9534 0 15.933 0.402971 17.1287 1.55049C18.6441 2.96509 18.4995 4.85273 18.4995 6.90682V11.7596C18.4995 13.218 19.1039 13.8574 19.6732 14.6458C19.8747 14.9261 19.9185 15.2634 19.6645 15.4735C19.0294 16.0034 17.8994 16.9889 17.2776 17.5408L17.2688 17.5321" fill="white"/>
<path d="M20.6612 19.3764C10.946 24 4.91668 20.1315 1.05711 17.7819C0.818283 17.6338 0.412358 17.8165 0.764554 18.2211C2.05037 19.7802 6.26426 23.538 11.7646 23.538C17.2687 23.538 20.5432 20.5347 20.9528 20.0108C21.3597 19.4913 21.0723 19.2047 20.6611 19.3764H20.6612ZM23.3897 17.8695C23.1288 17.5298 21.8032 17.4665 20.9691 17.5689C20.1336 17.6685 18.8795 18.1791 18.9885 18.4857C19.0445 18.6005 19.1587 18.549 19.7326 18.4974C20.3081 18.44 21.9204 18.2365 22.2563 18.6757C22.5939 19.1179 21.7421 21.2244 21.5866 21.5641C21.4363 21.9039 21.644 21.9915 21.9263 21.7652C22.2047 21.539 22.7088 20.9533 23.0471 20.1243C23.383 19.2909 23.588 18.1282 23.3897 17.8695Z" fill="#FF9900"/>
<path fill-rule="evenodd" clip-rule="evenodd" d="M14.1287 9.94199C14.1287 11.1551 14.1593 12.1669 13.5461 13.2442C13.0512 14.1202 12.2673 14.6589 11.3913 14.6589C10.1956 14.6589 9.49927 13.7479 9.49927 12.4034C9.49927 9.74922 11.8774 9.2675 14.1287 9.2675V9.94199ZM17.2689 17.5321C17.063 17.716 16.7652 17.7292 16.5331 17.6065C15.4995 16.7481 15.3155 16.3495 14.7462 15.5305C13.0381 17.2737 11.8293 17.7948 9.61319 17.7948C6.99411 17.7948 4.95312 16.1787 4.95312 12.9421C4.95312 10.415 6.32406 8.69374 8.27291 7.85291C9.96354 7.10826 12.3242 6.97689 14.1287 6.77111V6.36814C14.1287 5.62793 14.1855 4.75201 13.752 4.11261C13.3709 3.53885 12.6439 3.30233 12.0044 3.30233C10.8176 3.30233 9.75767 3.91108 9.49927 5.17243C9.44665 5.4528 9.24087 5.72874 8.96059 5.74185L5.93853 5.41782C5.68457 5.36076 5.40429 5.15498 5.47436 4.76512C6.17072 1.10376 9.47729 0 12.438 0C13.9534 0 15.933 0.402971 17.1287 1.55049C18.6441 2.96509 18.4995 4.85273 18.4995 6.90682V11.7596C18.4995 13.218 19.1039 13.8574 19.6732 14.6458C19.8747 14.9261 19.9185 15.2634 19.6645 15.4735C19.0294 16.0034 17.8994 16.9889 17.2776 17.5408L17.2688 17.5321" fill="white"/>
</g>
<defs>
<clipPath id="clip0_1_423">
<rect width="24" height="24" fill="white"/>
</clipPath>
</defs>
</svg>
