<svg width="44" height="44" viewBox="0 0 44 44" fill="none" xmlns="http://www.w3.org/2000/svg">
<rect width="44" height="44" rx="22" fill="url(#paint0_radial_145_266)"/>
<path d="M30.5115 16.9158C30.4696 16.8124 30.4034 16.7208 30.3183 16.6486C30.2333 16.5765 30.1321 16.5261 30.0233 16.5017C29.9145 16.4773 29.8014 16.4796 29.6937 16.5085C29.586 16.5374 29.4869 16.592 29.405 16.6676L25.932 19.8722L24.4472 19.5533L24.1284 18.0687L27.3333 14.5962C27.4089 14.5142 27.4635 14.4152 27.4924 14.3075C27.5213 14.1998 27.5236 14.0867 27.4992 13.9779C27.4748 13.8691 27.4244 13.7679 27.3522 13.6829C27.2801 13.5979 27.1884 13.5316 27.0851 13.4898C26.1431 13.1088 25.122 12.9649 24.1114 13.0709C23.1008 13.1768 22.1317 13.5293 21.2893 14.0973C20.4468 14.6654 19.7567 15.4316 19.2797 16.3287C18.8027 17.2258 18.5534 18.2263 18.5536 19.2423C18.5525 20.1002 18.7285 20.9492 19.0707 21.7359L13.882 26.2218C13.869 26.2321 13.857 26.2442 13.8449 26.2554C13.3277 26.7725 13.0371 27.474 13.0371 28.2053C13.0371 28.5675 13.1084 28.9261 13.247 29.2606C13.3856 29.5952 13.5888 29.8992 13.8449 30.1553C14.101 30.4113 14.405 30.6145 14.7396 30.7531C15.0743 30.8916 15.4329 30.963 15.7951 30.963C16.5265 30.963 17.228 30.6724 17.7453 30.1553C17.7565 30.1441 17.7685 30.1311 17.7789 30.1191L22.2644 24.9293C23.2092 25.344 24.2426 25.5165 25.271 25.4313C26.2993 25.346 27.2902 25.0057 28.1539 24.441C29.0175 23.8764 29.7267 23.1053 30.2172 22.1975C30.7077 21.2898 30.9641 20.274 30.963 19.2423C30.9644 18.4449 30.811 17.6548 30.5115 16.9158ZM24.7583 24.0676C23.9423 24.0665 23.1398 23.859 22.4255 23.4644C22.2871 23.388 22.1267 23.3614 21.971 23.3892C21.8154 23.417 21.674 23.4974 21.5706 23.617L16.7534 29.1954C16.4927 29.443 16.1456 29.579 15.786 29.5744C15.4265 29.5698 15.0829 29.425 14.8287 29.1707C14.5744 28.9165 14.4296 28.573 14.425 28.2135C14.4203 27.854 14.5564 27.5069 14.804 27.2463L20.3788 22.4304C20.4986 22.327 20.5792 22.1855 20.6069 22.0297C20.6347 21.8739 20.608 21.7133 20.5313 21.5748C20.0919 20.78 19.8856 19.8774 19.9363 18.9707C19.987 18.0639 20.2926 17.1899 20.8179 16.4491C21.3433 15.7082 22.067 15.1307 22.906 14.7828C23.745 14.4349 24.6651 14.3308 25.5606 14.4824L22.8719 17.3957C22.7971 17.4769 22.7429 17.5748 22.7138 17.6812C22.6847 17.7877 22.6816 17.8996 22.7047 18.0075L23.1925 20.2763C23.2204 20.406 23.2851 20.525 23.379 20.6188C23.4729 20.7127 23.5918 20.7774 23.7216 20.8053L25.9924 21.293C26.1003 21.3162 26.2122 21.3131 26.3187 21.284C26.4251 21.2549 26.5231 21.2007 26.6042 21.1259L29.5178 18.4375C29.634 19.1294 29.598 19.8383 29.4124 20.5149C29.2268 21.1915 28.896 21.8196 28.443 22.3554C27.99 22.8913 27.4258 23.322 26.7894 23.6177C26.1531 23.9134 25.46 24.0669 24.7583 24.0676Z" fill="#C2E6FF"/>
<defs>
<radialGradient id="paint0_radial_145_266" cx="0" cy="0" r="1" gradientUnits="userSpaceOnUse" gradientTransform="translate(22 22) rotate(101.997) scale(22.4912)">
<stop stop-color="#174269" stop-opacity="0"/>
<stop offset="0.584572" stop-color="#174269" stop-opacity="0"/>
<stop offset="1" stop-color="#8BBBD6" stop-opacity="0.37"/>
</radialGradient>
</defs>
</svg>
