<svg width="18" height="20" viewBox="0 0 18 20" fill="none" xmlns="http://www.w3.org/2000/svg">
<path d="M17.7938 14.4944C17.2734 13.5981 16.5 11.0622 16.5 7.75C16.5 5.76088 15.7098 3.85322 14.3033 2.4467C12.8968 1.04018 10.9891 0.25 9.00001 0.25C7.01089 0.25 5.10323 1.04018 3.69671 2.4467C2.29019 3.85322 1.50001 5.76088 1.50001 7.75C1.50001 11.0631 0.725637 13.5981 0.205324 14.4944C0.0724531 14.7222 0.00201297 14.9811 0.00110747 15.2449C0.000201977 15.5086 0.0688633 15.768 0.200167 15.9967C0.331471 16.2255 0.520774 16.4156 0.748986 16.5478C0.977197 16.6801 1.23625 16.7498 1.50001 16.75H5.32595C5.49899 17.5967 5.95916 18.3577 6.62864 18.9042C7.29811 19.4507 8.1358 19.7492 9.00001 19.7492C9.86422 19.7492 10.7019 19.4507 11.3714 18.9042C12.0409 18.3577 12.501 17.5967 12.6741 16.75H16.5C16.7637 16.7496 17.0226 16.6798 17.2507 16.5475C17.4788 16.4151 17.668 16.225 17.7992 15.9963C17.9303 15.7676 17.9989 15.5083 17.998 15.2446C17.997 14.9809 17.9266 14.7222 17.7938 14.4944ZM9.00001 18.25C8.53484 18.2499 8.08115 18.1055 7.70138 17.8369C7.32162 17.5683 7.03444 17.1886 6.87939 16.75H11.1206C10.9656 17.1886 10.6784 17.5683 10.2986 17.8369C9.91887 18.1055 9.46518 18.2499 9.00001 18.25ZM1.50001 15.25C2.22189 14.0087 3.00001 11.1325 3.00001 7.75C3.00001 6.1587 3.63215 4.63258 4.75737 3.50736C5.88259 2.38214 7.40871 1.75 9.00001 1.75C10.5913 1.75 12.1174 2.38214 13.2427 3.50736C14.3679 4.63258 15 6.1587 15 7.75C15 11.1297 15.7763 14.0059 16.5 15.25H1.50001Z" fill="url(#paint0_linear_145_378)"/>
<defs>
<linearGradient id="paint0_linear_145_378" x1="1.74937" y1="0.520827" x2="17.5699" y2="1.38507" gradientUnits="userSpaceOnUse">
<stop stop-color="#1BD0DB"/>
<stop offset="1" stop-color="#409CF0"/>
</linearGradient>
</defs>
</svg>
