<svg width="23" height="18" viewBox="0 0 23 18" fill="none" xmlns="http://www.w3.org/2000/svg">
<path d="M20 3.75003H18.5V3.00003C18.5 2.40329 18.2629 1.831 17.841 1.40904C17.419 0.987083 16.8467 0.750031 16.25 0.750031H2.75C2.15326 0.750031 1.58097 0.987083 1.15901 1.40904C0.737053 1.831 0.5 2.40329 0.5 3.00003V12C0.5 12.5968 0.737053 13.1691 1.15901 13.591C1.58097 14.013 2.15326 14.25 2.75 14.25H13.25V15C13.25 15.5968 13.4871 16.1691 13.909 16.591C14.331 17.013 14.9033 17.25 15.5 17.25H20C20.5967 17.25 21.169 17.013 21.591 16.591C22.0129 16.1691 22.25 15.5968 22.25 15V6.00003C22.25 5.40329 22.0129 4.831 21.591 4.40904C21.169 3.98708 20.5967 3.75003 20 3.75003ZM2.75 12.75C2.55109 12.75 2.36032 12.671 2.21967 12.5304C2.07902 12.3897 2 12.1989 2 12V3.00003C2 2.80112 2.07902 2.61035 2.21967 2.4697C2.36032 2.32905 2.55109 2.25003 2.75 2.25003H16.25C16.4489 2.25003 16.6397 2.32905 16.7803 2.4697C16.921 2.61035 17 2.80112 17 3.00003V3.75003H15.5C14.9033 3.75003 14.331 3.98708 13.909 4.40904C13.4871 4.831 13.25 5.40329 13.25 6.00003V12.75H2.75ZM20.75 15C20.75 15.1989 20.671 15.3897 20.5303 15.5304C20.3897 15.671 20.1989 15.75 20 15.75H15.5C15.3011 15.75 15.1103 15.671 14.9697 15.5304C14.829 15.3897 14.75 15.1989 14.75 15V6.00003C14.75 5.80112 14.829 5.61035 14.9697 5.4697C15.1103 5.32905 15.3011 5.25003 15.5 5.25003H20C20.1989 5.25003 20.3897 5.32905 20.5303 5.4697C20.671 5.61035 20.75 5.80112 20.75 6.00003V15ZM11.75 16.5C11.75 16.6989 11.671 16.8897 11.5303 17.0304C11.3897 17.171 11.1989 17.25 11 17.25H7.25C7.05109 17.25 6.86032 17.171 6.71967 17.0304C6.57902 16.8897 6.5 16.6989 6.5 16.5C6.5 16.3011 6.57902 16.1104 6.71967 15.9697C6.86032 15.829 7.05109 15.75 7.25 15.75H11C11.1989 15.75 11.3897 15.829 11.5303 15.9697C11.671 16.1104 11.75 16.3011 11.75 16.5ZM19.25 7.50003C19.25 7.69894 19.171 7.88971 19.0303 8.03036C18.8897 8.17101 18.6989 8.25003 18.5 8.25003H17C16.8011 8.25003 16.6103 8.17101 16.4697 8.03036C16.329 7.88971 16.25 7.69894 16.25 7.50003C16.25 7.30112 16.329 7.11035 16.4697 6.9697C16.6103 6.82905 16.8011 6.75003 17 6.75003H18.5C18.6989 6.75003 18.8897 6.82905 19.0303 6.9697C19.171 7.11035 19.25 7.30112 19.25 7.50003Z" fill="url(#paint0_linear_145_65)"/>
<defs>
<linearGradient id="paint0_linear_145_65" x1="2.61286" y1="0.979201" x2="21.6737" y2="2.46634" gradientUnits="userSpaceOnUse">
<stop stop-color="#1BD0DB"/>
<stop offset="1" stop-color="#409CF0"/>
</linearGradient>
</defs>
</svg>
