<svg width="24" height="24" viewBox="0 0 24 24" fill="none" xmlns="http://www.w3.org/2000/svg">
<path d="M23.5625 11.3361L13.4026 1.13139L12.4182 0.142578L4.77006 7.82443L1.27275 11.3361C1.09806 11.5125 1 11.7511 1 11.9999C1 12.2487 1.09806 12.4873 1.27275 12.6637L8.25998 19.6818L12.4182 23.8572L20.0652 16.1754L20.1843 16.0568L23.5625 12.669C23.6501 12.5817 23.7195 12.4779 23.767 12.3635C23.8144 12.2491 23.8388 12.1265 23.8388 12.0026C23.8388 11.8787 23.8144 11.756 23.767 11.6416C23.7195 11.5272 23.6501 11.4234 23.5625 11.3361ZM12.4182 15.5063L8.92719 11.9999L12.4182 8.49352L15.9081 11.9999L12.4182 15.5063Z" fill="#2684FF"/>
<path d="M12.4178 8.49326C11.3199 7.39076 10.701 5.89666 10.6963 4.33732C10.6915 2.77798 11.3013 1.28011 12.3925 0.170898L4.75391 7.84005L8.91104 12.0155L12.4178 8.49326Z" fill="url(#paint0_linear_1_404)"/>
<path d="M15.9174 11.9902L12.418 15.5061C13.52 16.6134 14.1391 18.1149 14.1391 19.6806C14.1391 21.2462 13.52 22.7477 12.418 23.855L20.0777 16.1657L15.9174 11.9902Z" fill="url(#paint1_linear_1_404)"/>
<defs>
<linearGradient id="paint0_linear_1_404" x1="11.7928" y1="4.94559" x2="6.89639" y2="9.81942" gradientUnits="userSpaceOnUse">
<stop offset="0.18" stop-color="#0052CC"/>
<stop offset="1" stop-color="#2684FF"/>
</linearGradient>
<linearGradient id="paint1_linear_1_404" x1="13.0841" y1="19.0115" x2="17.971" y2="14.1471" gradientUnits="userSpaceOnUse">
<stop offset="0.18" stop-color="#0052CC"/>
<stop offset="1" stop-color="#2684FF"/>
</linearGradient>
</defs>
</svg>
