<svg width="30" height="24" viewBox="0 0 30 24" fill="none" xmlns="http://www.w3.org/2000/svg">
<g clip-path="url(#clip0_1_411)">
<path d="M19.0358 6.609H19.9512L22.5592 4.01637L22.6875 2.91631C17.8348 -1.34141 10.427 -0.882636 6.14394 3.94137C4.9531 5.28144 4.0892 6.87527 3.6189 8.60036C3.90938 8.4816 4.2313 8.46285 4.53435 8.54535L9.74917 7.69031C9.74917 7.69031 10.0145 7.25404 10.1516 7.28154C12.4716 4.74891 16.3762 4.45389 19.0546 6.609H19.0358Z" fill="#EA4335"/>
<path d="M26.274 8.60047C25.6742 6.4066 24.4444 4.434 22.7329 2.92517L19.0736 6.56286C20.6191 7.81793 21.4993 9.70927 21.4616 11.6931V12.3394C23.2611 12.3394 24.7185 13.7895 24.7185 15.5771C24.7185 17.3659 23.2598 18.8147 21.4616 18.8147H14.9465L14.2964 19.4698V23.3537L14.9465 24H21.4616C25.1963 24.0288 28.5098 21.6224 29.6189 18.0772C30.7255 14.5308 29.3674 10.6806 26.274 8.60047Z" fill="#4285F4"/>
<path d="M8.42261 23.9637H14.9377V18.7797H8.42261C7.95859 18.7797 7.49961 18.6809 7.07709 18.4884L6.16164 18.7697L3.53599 21.3623L3.30713 22.2724C4.77965 23.3774 6.57661 23.9712 8.42261 23.9637Z" fill="#34A853"/>
<path d="M8.42257 7.14531C4.80351 7.16656 1.59816 9.47043 0.443781 12.8794C-0.710597 16.2883 0.440009 20.051 3.30835 22.2436L7.08711 18.4872C5.44734 17.7509 4.71926 15.8333 5.45992 14.2032C6.20058 12.5731 8.12958 11.8493 9.76935 12.5856C10.4911 12.9106 11.0696 13.4856 11.3965 14.2032L15.1753 10.4467C13.567 8.35787 11.0683 7.13656 8.42257 7.14531Z" fill="#FBBC05"/>
</g>
<defs>
<clipPath id="clip0_1_411">
<rect width="30" height="24" fill="white"/>
</clipPath>
</defs>
</svg>
