<svg width="24" height="24" viewBox="0 0 24 24" fill="none" xmlns="http://www.w3.org/2000/svg">
<g clip-path="url(#clip0_1_431)">
<path fill-rule="evenodd" clip-rule="evenodd" d="M11.9954 24V19.3512C16.9161 19.3512 20.7358 14.4714 18.8461 9.29234C18.4991 8.3409 17.9482 7.47683 17.2321 6.76066C16.5161 6.04449 15.6521 5.49353 14.7006 5.14639C9.52157 3.2707 4.6418 7.07645 4.6418 11.9971H0.00646973C0.00646973 4.15465 7.59151 -1.96227 15.8151 0.606336C19.4038 1.73521 22.2717 4.58917 23.3867 8.17838C25.9557 16.415 19.8523 24 11.9954 24Z" fill="#0080FF"/>
<path fill-rule="evenodd" clip-rule="evenodd" d="M7.38744 19.3647H12.0088V14.7433H7.38793L7.38744 19.3647ZM3.82614 22.926H7.38696V19.3651H3.82614V22.926ZM0.848999 19.3651H3.82614V16.3875H0.848999V19.3651Z" fill="#0080FF"/>
</g>
<defs>
<clipPath id="clip0_1_431">
<rect width="24" height="24" fill="white"/>
</clipPath>
</defs>
</svg>
