<svg width="44" height="44" viewBox="0 0 44 44" fill="none" xmlns="http://www.w3.org/2000/svg">
<rect width="44" height="44" rx="22" fill="url(#paint0_radial_145_144)"/>
<path d="M29.8426 14.1574H17.0092C16.631 14.1574 16.2684 14.3076 16.0009 14.5751C15.7335 14.8425 15.5833 15.2052 15.5833 15.5833V17.0093H14.1574C13.7792 17.0093 13.4165 17.1595 13.1491 17.4269C12.8817 17.6943 12.7314 18.057 12.7314 18.4352V28.4167C12.7314 28.7948 12.8817 29.1575 13.1491 29.4249C13.4165 29.6924 13.7792 29.8426 14.1574 29.8426H26.9907C27.3689 29.8426 27.7316 29.6924 27.999 29.4249C28.2664 29.1575 28.4166 28.7948 28.4166 28.4167V26.9907H29.8426C30.2207 26.9907 30.5834 26.8405 30.8508 26.5731C31.1182 26.3057 31.2685 25.943 31.2685 25.5648V15.5833C31.2685 15.2052 31.1182 14.8425 30.8508 14.5751C30.5834 14.3076 30.2207 14.1574 29.8426 14.1574ZM26.9907 18.4352V19.8611H14.1574V18.4352H26.9907ZM26.9907 28.4167H14.1574V21.287H26.9907V28.4167ZM29.8426 25.5648H28.4166V18.4352C28.4166 18.057 28.2664 17.6943 27.999 17.4269C27.7316 17.1595 27.3689 17.0093 26.9907 17.0093H17.0092V15.5833H29.8426V25.5648Z" fill="#C2E6FF"/>
<defs>
<radialGradient id="paint0_radial_145_144" cx="0" cy="0" r="1" gradientUnits="userSpaceOnUse" gradientTransform="translate(22 22) rotate(101.997) scale(22.4912)">
<stop stop-color="#174269" stop-opacity="0"/>
<stop offset="0.584572" stop-color="#174269" stop-opacity="0"/>
<stop offset="1" stop-color="#8BBBD6" stop-opacity="0.37"/>
</radialGradient>
</defs>
</svg>
