<svg width="44" height="44" viewBox="0 0 44 44" fill="none" xmlns="http://www.w3.org/2000/svg">
<rect width="44" height="44" rx="22" fill="url(#paint0_radial_145_287)"/>
<path d="M31.9823 21.8781C31.8195 20.0118 31.1369 18.2285 30.0118 16.7306C28.8867 15.2328 27.3643 14.0802 25.6173 13.4039C23.8703 12.7276 21.9687 12.5545 20.1283 12.9043C18.2879 13.2541 16.5824 14.1128 15.2054 15.383C13.3671 17.0718 12.2313 19.3904 12.0238 21.8781C12.0069 22.0749 12.0311 22.2732 12.0948 22.4602C12.1586 22.6473 12.2605 22.819 12.3942 22.9646C12.5278 23.1101 12.6903 23.2263 12.8712 23.3058C13.0522 23.3852 13.2476 23.4262 13.4453 23.4261H21.2879V28.4168C21.2879 29.1732 21.5883 29.8986 22.1231 30.4334C22.658 30.9682 23.3833 31.2687 24.1397 31.2687C24.8961 31.2687 25.6214 30.9682 26.1563 30.4334C26.6911 29.8986 26.9916 29.1732 26.9916 28.4168C26.9916 28.2277 26.9164 28.0464 26.7827 27.9127C26.649 27.779 26.4677 27.7039 26.2786 27.7039C26.0895 27.7039 25.9082 27.779 25.7745 27.9127C25.6407 28.0464 25.5656 28.2277 25.5656 28.4168C25.5656 28.795 25.4154 29.1577 25.148 29.4251C24.8806 29.6925 24.5179 29.8427 24.1397 29.8427C23.7615 29.8427 23.3988 29.6925 23.1314 29.4251C22.864 29.1577 22.7138 28.795 22.7138 28.4168V23.4261H30.5564C30.7544 23.4268 30.9503 23.3863 31.1318 23.3071C31.3133 23.228 31.4763 23.1119 31.6104 22.9662C31.7445 22.8206 31.8469 22.6487 31.9109 22.4613C31.9749 22.274 31.9993 22.0753 31.9823 21.8781ZM13.4453 22.0002C13.6033 20.1635 14.3494 18.4269 15.5727 17.0479C16.7961 15.669 18.4315 14.7213 20.2362 14.3456C19.1917 15.7617 17.8879 18.2669 17.7382 22.0002H13.4453ZM19.1623 22.0002C19.2862 19.2579 20.1008 17.2937 20.7932 16.0968C21.1347 15.5023 21.5396 14.9465 22.0008 14.4392C22.4612 14.9465 22.8652 15.5023 23.2057 16.0968C24.3892 18.1412 24.7636 20.3318 24.8366 22.0002H19.1623ZM26.2608 22.0002C26.111 18.2669 24.8072 15.7617 23.7654 14.3412C25.5713 14.716 27.2079 15.664 28.4315 17.0441C29.6551 18.4241 30.4004 20.1624 30.5564 22.0002H26.2608Z" fill="#C2E6FF"/>
<defs>
<radialGradient id="paint0_radial_145_287" cx="0" cy="0" r="1" gradientUnits="userSpaceOnUse" gradientTransform="translate(22 22) rotate(101.997) scale(22.4912)">
<stop stop-color="#174269" stop-opacity="0"/>
<stop offset="0.584572" stop-color="#174269" stop-opacity="0"/>
<stop offset="1" stop-color="#8BBBD6" stop-opacity="0.37"/>
</radialGradient>
</defs>
</svg>
