<svg width="14" height="14" viewBox="0 0 14 14" fill="none" xmlns="http://www.w3.org/2000/svg">
<path fill-rule="evenodd" clip-rule="evenodd" d="M0.497129 0.497129C0.826634 0.167624 1.36087 0.167624 1.69037 0.497129L7 5.80676L12.3096 0.497129C12.6391 0.167624 13.1734 0.167624 13.5029 0.497129C13.8324 0.826634 13.8324 1.36087 13.5029 1.69037L8.19324 7L13.5029 12.3096C13.8324 12.6391 13.8324 13.1734 13.5029 13.5029C13.1734 13.8324 12.6391 13.8324 12.3096 13.5029L7 8.19324L1.69037 13.5029C1.36087 13.8324 0.826634 13.8324 0.497129 13.5029C0.167624 13.1734 0.167624 12.6391 0.497129 12.3096L5.80676 7L0.497129 1.69037C0.167624 1.36087 0.167624 0.826634 0.497129 0.497129Z" fill="white"/>
</svg>
