<svg width="44" height="44" viewBox="0 0 44 44" fill="none" xmlns="http://www.w3.org/2000/svg">
<rect width="44" height="44" rx="22" fill="url(#paint0_radial_145_163)"/>
<path d="M30.7811 15.6199L22.2256 12.768C22.0792 12.7192 21.921 12.7192 21.7746 12.768L13.2191 15.6199C13.0771 15.6672 12.9536 15.758 12.8661 15.8794C12.7786 16.0008 12.7316 16.1467 12.7316 16.2963V23.4259C12.7316 23.615 12.8067 23.7964 12.9404 23.9301C13.0741 24.0638 13.2554 24.1389 13.4445 24.1389C13.6336 24.1389 13.815 24.0638 13.9487 23.9301C14.0824 23.7964 14.1575 23.615 14.1575 23.4259V17.2855L17.151 18.2828C16.3557 19.5677 16.1028 21.1158 16.4478 22.5871C16.7929 24.0583 17.7077 25.3325 18.9914 26.1299C17.3872 26.759 16.0005 27.8971 14.9863 29.4532C14.9336 29.5315 14.8969 29.6196 14.8785 29.7123C14.8601 29.805 14.8603 29.9004 14.8791 29.993C14.8979 30.0856 14.935 30.1735 14.988 30.2517C15.0411 30.3299 15.1092 30.3967 15.1884 30.4483C15.2675 30.4999 15.3561 30.5353 15.449 30.5524C15.542 30.5695 15.6374 30.5679 15.7297 30.5478C15.822 30.5276 15.9094 30.4894 15.9868 30.4352C16.0642 30.381 16.13 30.3119 16.1805 30.2321C17.5236 28.1716 19.6446 26.9908 22.0001 26.9908C24.3555 26.9908 26.4766 28.1716 27.8196 30.2321C27.9242 30.3875 28.0858 30.4955 28.2693 30.5328C28.4529 30.57 28.6438 30.5336 28.8007 30.4312C28.9576 30.3289 29.0679 30.1689 29.1078 29.9859C29.1477 29.8029 29.1139 29.6115 29.0139 29.4532C27.9997 27.8971 26.6076 26.759 25.0088 26.1299C26.2913 25.3325 27.2052 24.0592 27.5502 22.589C27.8952 21.1188 27.6431 19.5718 26.8491 18.2873L30.7811 16.9772C30.9231 16.9299 31.0466 16.8391 31.1341 16.7177C31.2217 16.5963 31.2688 16.4504 31.2688 16.3008C31.2688 16.1511 31.2217 16.0052 31.1341 15.8838C31.0466 15.7624 30.9231 15.6716 30.7811 15.6243V15.6199ZM26.2779 21.2871C26.2781 21.9633 26.1179 22.6301 25.8105 23.2325C25.5032 23.8349 25.0573 24.3558 24.5097 24.7526C23.962 25.1493 23.328 25.4106 22.6598 25.5149C21.9916 25.6192 21.3082 25.5635 20.6656 25.3526C20.0231 25.1416 19.4397 24.7813 18.9634 24.3012C18.4871 23.8211 18.1313 23.2349 17.9254 22.5908C17.7195 21.9466 17.6693 21.2628 17.7788 20.5954C17.8883 19.928 18.1545 19.2961 18.5556 18.7516L21.7746 19.821C21.921 19.8698 22.0792 19.8698 22.2256 19.821L25.4446 18.7516C25.9862 19.4859 26.2783 20.3745 26.2779 21.2871ZM22.0001 18.3969L15.6993 16.2963L22.0001 14.1957L28.3009 16.2963L22.0001 18.3969Z" fill="#C2E6FF"/>
<defs>
<radialGradient id="paint0_radial_145_163" cx="0" cy="0" r="1" gradientUnits="userSpaceOnUse" gradientTransform="translate(22 22) rotate(101.997) scale(22.4912)">
<stop stop-color="#174269" stop-opacity="0"/>
<stop offset="0.584572" stop-color="#174269" stop-opacity="0"/>
<stop offset="1" stop-color="#8BBBD6" stop-opacity="0.37"/>
</radialGradient>
</defs>
</svg>
