<svg width="18" height="21" viewBox="0 0 18 21" fill="none" xmlns="http://www.w3.org/2000/svg">
<path d="M12.75 13.25C12.75 13.4489 12.671 13.6397 12.5303 13.7803C12.3897 13.921 12.1989 14 12 14H6C5.80109 14 5.61032 13.921 5.46967 13.7803C5.32902 13.6397 5.25 13.4489 5.25 13.25C5.25 13.0511 5.32902 12.8603 5.46967 12.7197C5.61032 12.579 5.80109 12.5 6 12.5H12C12.1989 12.5 12.3897 12.579 12.5303 12.7197C12.671 12.8603 12.75 13.0511 12.75 13.25ZM12 9.49999H6C5.80109 9.49999 5.61032 9.579 5.46967 9.71966C5.32902 9.86031 5.25 10.0511 5.25 10.25C5.25 10.4489 5.32902 10.6397 5.46967 10.7803C5.61032 10.921 5.80109 11 6 11H12C12.1989 11 12.3897 10.921 12.5303 10.7803C12.671 10.6397 12.75 10.4489 12.75 10.25C12.75 10.0511 12.671 9.86031 12.5303 9.71966C12.3897 9.579 12.1989 9.49999 12 9.49999ZM17.25 3.49999V19.25C17.25 19.6478 17.092 20.0293 16.8107 20.3106C16.5294 20.592 16.1478 20.75 15.75 20.75H2.25C1.85218 20.75 1.47064 20.592 1.18934 20.3106C0.908035 20.0293 0.75 19.6478 0.75 19.25V3.49999C0.75 3.10216 0.908035 2.72063 1.18934 2.43933C1.47064 2.15802 1.85218 1.99999 2.25 1.99999H5.64937C6.07079 1.52817 6.58709 1.15066 7.1645 0.892197C7.7419 0.633729 8.36738 0.500122 9 0.500122C9.63262 0.500122 10.2581 0.633729 10.8355 0.892197C11.4129 1.15066 11.9292 1.52817 12.3506 1.99999H15.75C16.1478 1.99999 16.5294 2.15802 16.8107 2.43933C17.092 2.72063 17.25 3.10216 17.25 3.49999ZM6 4.99999H12C12 4.20434 11.6839 3.44127 11.1213 2.87867C10.5587 2.31606 9.79565 1.99999 9 1.99999C8.20435 1.99999 7.44129 2.31606 6.87868 2.87867C6.31607 3.44127 6 4.20434 6 4.99999ZM15.75 3.49999H13.2422C13.4128 3.98169 13.5 4.48896 13.5 4.99999V5.74999C13.5 5.9489 13.421 6.13966 13.2803 6.28032C13.1397 6.42097 12.9489 6.49999 12.75 6.49999H5.25C5.05109 6.49999 4.86032 6.42097 4.71967 6.28032C4.57902 6.13966 4.5 5.9489 4.5 5.74999V4.99999C4.50002 4.48896 4.58721 3.98169 4.75781 3.49999H2.25V19.25H15.75V3.49999Z" fill="url(#paint0_linear_145_48)"/>
<defs>
<linearGradient id="paint0_linear_145_48" x1="2.35286" y1="0.781375" x2="16.8671" y2="1.48136" gradientUnits="userSpaceOnUse">
<stop stop-color="#409CF0"/>
<stop offset="1" stop-color="#34F3FF"/>
</linearGradient>
</defs>
</svg>
