<svg width="44" height="44" viewBox="0 0 44 44" fill="none" xmlns="http://www.w3.org/2000/svg">
<rect width="44" height="44" rx="22" fill="url(#paint0_radial_145_422)"/>
<path d="M15.7924 19.6526L12.9405 16.8008C12.8743 16.7346 12.8217 16.6559 12.7858 16.5694C12.7499 16.4828 12.7314 16.39 12.7314 16.2964C12.7314 16.2027 12.7499 16.1099 12.7858 16.0233C12.8217 15.9368 12.8743 15.8581 12.9405 15.7919L15.7924 12.9401C15.9262 12.8063 16.1076 12.7311 16.2968 12.7311C16.486 12.7311 16.6675 12.8063 16.8012 12.9401C16.935 13.0739 17.0102 13.2553 17.0102 13.4445C17.0102 13.6337 16.935 13.8151 16.8012 13.9489L14.4529 16.2964L16.8012 18.6438C16.935 18.7776 17.0102 18.959 17.0102 19.1482C17.0102 19.3374 16.935 19.5188 16.8012 19.6526C16.6675 19.7864 16.486 19.8616 16.2968 19.8616C16.1076 19.8616 15.9262 19.7864 15.7924 19.6526ZM19.3572 19.6526C19.4234 19.7189 19.5021 19.7715 19.5886 19.8074C19.6752 19.8433 19.7679 19.8617 19.8616 19.8617C19.9553 19.8617 20.0481 19.8433 20.1347 19.8074C20.2212 19.7715 20.2998 19.7189 20.3661 19.6526L23.2179 16.8008C23.2842 16.7346 23.3368 16.6559 23.3727 16.5694C23.4085 16.4828 23.427 16.39 23.427 16.2964C23.427 16.2027 23.4085 16.1099 23.3727 16.0233C23.3368 15.9368 23.2842 15.8581 23.2179 15.7919L20.3661 12.9401C20.2323 12.8063 20.0508 12.7311 19.8616 12.7311C19.6724 12.7311 19.491 12.8063 19.3572 12.9401C19.2234 13.0739 19.1483 13.2553 19.1483 13.4445C19.1483 13.6337 19.2234 13.8151 19.3572 13.9489L21.7055 16.2964L19.3572 18.6438C19.2909 18.71 19.2383 18.7886 19.2025 18.8752C19.1666 18.9617 19.1481 19.0545 19.1481 19.1482C19.1481 19.2419 19.1666 19.3347 19.2025 19.4212C19.2383 19.5078 19.2909 19.5864 19.3572 19.6526ZM28.4172 14.1575H26.2783C26.0892 14.1575 25.9079 14.2326 25.7742 14.3663C25.6405 14.5 25.5653 14.6813 25.5653 14.8704C25.5653 15.0595 25.6405 15.2409 25.7742 15.3746C25.9079 15.5083 26.0892 15.5834 26.2783 15.5834H28.4172V28.4167H15.5839V22.713C15.5839 22.5239 15.5087 22.3426 15.375 22.2089C15.2413 22.0752 15.06 22.0001 14.8709 22.0001C14.6818 22.0001 14.5005 22.0752 14.3668 22.2089C14.233 22.3426 14.1579 22.5239 14.1579 22.713V28.4167C14.1579 28.7949 14.3082 29.1576 14.5756 29.425C14.843 29.6924 15.2057 29.8426 15.5839 29.8426H28.4172C28.7954 29.8426 29.1581 29.6924 29.4255 29.425C29.6929 29.1576 29.8431 28.7949 29.8431 28.4167V15.5834C29.8431 15.2052 29.6929 14.8425 29.4255 14.5751C29.1581 14.3077 28.7954 14.1575 28.4172 14.1575Z" fill="#C2E6FF"/>
<defs>
<radialGradient id="paint0_radial_145_422" cx="0" cy="0" r="1" gradientUnits="userSpaceOnUse" gradientTransform="translate(22 22) rotate(101.997) scale(22.4912)">
<stop stop-color="#174269" stop-opacity="0"/>
<stop offset="0.584572" stop-color="#174269" stop-opacity="0"/>
<stop offset="1" stop-color="#8BBBD6" stop-opacity="0.37"/>
</radialGradient>
</defs>
</svg>
