<svg width="20" height="20" viewBox="0 0 20 20" fill="none" xmlns="http://www.w3.org/2000/svg">
<path d="M10 0.250031C8.07164 0.250031 6.18657 0.821858 4.58319 1.8932C2.97982 2.96455 1.73013 4.48729 0.992179 6.26887C0.254225 8.05045 0.061142 10.0108 0.437348 11.9022C0.813554 13.7935 1.74215 15.5308 3.10571 16.8943C4.46928 18.2579 6.20656 19.1865 8.09787 19.5627C9.98919 19.9389 11.9496 19.7458 13.7312 19.0079C15.5127 18.2699 17.0355 17.0202 18.1068 15.4168C19.1782 13.8135 19.75 11.9284 19.75 10C19.7473 7.41501 18.7192 4.93664 16.8913 3.10875C15.0634 1.28087 12.585 0.25276 10 0.250031ZM16.7378 5.24409L10.75 8.70066V1.78472C11.9389 1.89372 13.0901 2.25948 14.1239 2.85675C15.1577 3.45401 16.0495 4.26854 16.7378 5.24409ZM9.25 1.78472V9.56597L2.51032 13.4566C1.95704 12.2574 1.69975 10.9429 1.76008 9.62356C1.82041 8.30425 2.19659 7.01871 2.85701 5.875C3.51742 4.73129 4.44276 3.76284 5.55523 3.05107C6.66771 2.3393 7.93481 1.90502 9.25 1.78472ZM10 18.25C8.67924 18.2495 7.37792 17.9319 6.20543 17.3238C5.03295 16.7158 4.02358 15.8352 3.26219 14.756L17.4897 6.54253C18.0699 7.79949 18.3244 9.18224 18.2299 10.5634C18.1354 11.9446 17.6948 13.2797 16.9487 14.4459C16.2027 15.6121 15.1752 16.5718 13.9608 17.2366C12.7465 17.9014 11.3844 18.2499 10 18.25Z" fill="url(#paint0_linear_145_525)"/>
<defs>
<linearGradient id="paint0_linear_145_525" x1="2.14429" y1="0.520869" x2="19.2773" y2="1.53494" gradientUnits="userSpaceOnUse">
<stop stop-color="#1BD0DB"/>
<stop offset="1" stop-color="#409CF0"/>
</linearGradient>
</defs>
</svg>
