<svg width="18" height="20" viewBox="0 0 18 20" fill="none" xmlns="http://www.w3.org/2000/svg">
<path fill-rule="evenodd" clip-rule="evenodd" d="M0.5 4.90602V14.7313L2.43809 15.8619V13.6006V13.0934V6.03723L7.3 3.19951L5.36191 2.06885L0.5 4.90602Z" fill="white"/>
<path fill-rule="evenodd" clip-rule="evenodd" d="M9.20708 0L7.2998 1.12983L10.0836 2.7784L10.0826 2.7795L15.5909 6.04235V11.7241L17.4998 10.5937V4.91142L9.20708 0Z" fill="white"/>
<path fill-rule="evenodd" clip-rule="evenodd" d="M14.7492 14.6921L14.7449 14.6841L9.30866 17.823L4.58008 15.0921V17.2691L9.30866 20.0001L17.5001 15.2705V13.1035L14.7492 14.6921Z" fill="white"/>
<path fill-rule="evenodd" clip-rule="evenodd" d="M6.12954 11.6803V8.32037L8.99952 6.6407L11.8573 8.31309L10.2742 9.25297L8.99952 8.507L7.72434 9.25353V10.7471L8.99952 11.4937L10.2742 10.7477L11.8573 11.6876L8.99952 13.36L6.12954 11.6803ZM8.99952 4.82764L4.58008 7.41412V12.5865L8.99952 15.1725L13.4201 12.5865V7.41412L8.99952 4.82764Z" fill="white"/>
</svg>
