<svg width="59" height="11" viewBox="0 0 59 11" fill="none" xmlns="http://www.w3.org/2000/svg">
<path d="M5.4533 10.317C2.96156 10.317 0.800049 8.66586 0.800049 5.33353C0.800049 2.06125 3.05162 0.199951 5.51334 0.199951C6.80424 0.199951 7.85497 0.80037 8.54545 1.49085L7.19451 3.142C6.71418 2.72171 6.23384 2.4215 5.57338 2.4215C4.43258 2.4215 3.44189 3.47223 3.44189 5.24347C3.44189 7.07475 4.28248 8.09546 5.54336 8.09546C6.29388 8.09546 6.8943 7.70519 7.31459 7.25487L8.66554 8.876C7.83996 9.83667 6.71418 10.317 5.4533 10.317ZM12.3731 6.06905H14.1744L14.0093 5.39357C13.7691 4.46293 13.5289 3.2771 13.2888 2.30142H13.2287C13.0186 3.29211 12.7784 4.46293 12.5382 5.39357L12.3731 6.06905ZM15.12 10.1369L14.6397 8.06544H11.9078L11.4275 10.1369H8.78562L11.7577 0.380077H14.8799L17.8519 10.1369H15.12ZM21.3644 2.4215V4.82318H22.295C23.3158 4.82318 23.8561 4.37286 23.8561 3.53228C23.8561 2.69169 23.3158 2.4215 22.295 2.4215H21.3644ZM26.9183 10.1369H24.0363L22.3551 6.8646H21.3644V10.1369H18.7826V0.380077H22.4752C24.5766 0.380077 26.3779 1.10058 26.3779 3.53228C26.3779 4.92825 25.7475 5.84389 24.8018 6.35424L26.9183 10.1369ZM30.821 2.4215V4.82318H31.7516C32.7724 4.82318 33.3127 4.37286 33.3127 3.53228C33.3127 2.69169 32.7724 2.4215 31.7516 2.4215H30.821ZM36.3749 10.1369H33.4929L31.8117 6.8646H30.821V10.1369H28.2392V0.380077H31.9318C34.0332 0.380077 35.8345 1.10058 35.8345 3.53228C35.8345 4.92825 35.2041 5.84389 34.2584 6.35424L36.3749 10.1369ZM37.6958 10.1369V0.380077H40.2776V10.1369H37.6958ZM42.4391 10.1369V0.380077H48.7435V2.54158H45.0209V4.07265H48.2031V6.23416H45.0209V7.97538H48.8936V10.1369H42.4391ZM53.3667 2.4215V4.82318H54.2974C55.3181 4.82318 55.8585 4.37286 55.8585 3.53228C55.8585 2.69169 55.3181 2.4215 54.2974 2.4215H53.3667ZM58.9206 10.1369H56.0386L54.3574 6.8646H53.3667V10.1369H50.7849V0.380077H54.4775C56.579 0.380077 58.3802 1.10058 58.3802 3.53228C58.3802 4.92825 57.7498 5.84389 56.8041 6.35424L58.9206 10.1369Z" fill="white"/>
</svg>
