<svg width="25" height="25" viewBox="0 0 25 25" fill="none" xmlns="http://www.w3.org/2000/svg">
<g clip-path="url(#clip0_359_1182)">
<path d="M2.04834 15.162V18.5432C2.04834 18.7977 2.18364 19.0329 2.40329 19.1601L12.145 24.8039C12.3646 24.9312 12.6353 24.9312 12.8549 24.8039L22.5966 19.1601C22.8162 19.0329 22.9516 18.7977 22.9516 18.5432V13.9974L12.5 20.0742L6.30782 16.4867V12.6942L2.04834 15.162Z" fill="#00B0D1"/>
<path d="M12.5 5.72458L18.6921 9.31206V13.1616L22.9516 10.694V7.25555C22.9516 7.00109 22.8162 6.76587 22.5966 6.63864L12.8549 0.994862C12.6353 0.867598 12.3646 0.867598 12.145 0.994862L2.40329 6.63864C2.18364 6.76587 2.04834 7.00109 2.04834 7.25555V11.8802L12.5 5.72458Z" fill="#00B0D1"/>
</g>
<defs>
<clipPath id="clip0_359_1182">
<rect width="24" height="24" fill="white" transform="translate(0.5 0.899414)"/>
</clipPath>
</defs>
</svg>
