<svg xmlns="http://www.w3.org/2000/svg"><defs><symbol id="windows" viewBox="0 0 18 18"><path d="M0 2.537l7.3-.994.003 7.04-7.296.042L0 2.537zm7.296 6.858l.006 7.047L.006 15.44V9.348l7.29.047zm.885-7.982L17.86 0v8.494l-9.679.077V1.413zm9.681 8.048l-.002 8.456-9.679-1.366-.014-7.106 9.695.016z"/></symbol><symbol id="ubuntu" viewBox="0 0 18 18"><path d="M2.629 10.74C1.729 10.74 1 9.962 1 9.001s.73-1.738 1.629-1.738c.9 0 1.629.778 1.629 1.738s-.73 1.739-1.629 1.739zm11.68 7.196c-.899 0-1.628-.779-1.628-1.739 0-.96.73-1.738 1.629-1.738.9 0 1.629.778 1.629 1.738s-.73 1.739-1.63 1.739zm0-14.395c-.9 0-1.63-.778-1.63-1.738S13.41.064 14.31.064c.899 0 1.628.779 1.628 1.739 0 .96-.729 1.738-1.629 1.738zm.097 4.85c-.279-2.084-1.962-3.692-3.99-3.692-.53 0-1.036.11-1.5.31L7.518 2.426a6.45 6.45 0 0 1 4.457-.496c.04.815.453 1.594 1.165 2.032a2.206 2.206 0 0 0 2.23.061 7.434 7.434 0 0 1 1.827 4.368h-2.791zM6.386 9c0 1.37.603 2.593 1.54 3.381L6.53 14.965a7.036 7.036 0 0 1-.926-.828 7.334 7.334 0 0 1-1.707-3.042 2.535 2.535 0 0 0 1.068-2.094c0-.878-.425-1.65-1.068-2.094a7.334 7.334 0 0 1 1.707-3.041 7.03 7.03 0 0 1 .926-.829L7.927 5.62C6.99 6.408 6.385 7.63 6.385 9zm4.03 4.302c2.029 0 3.712-1.608 3.99-3.693h2.79a7.436 7.436 0 0 1-1.824 4.367 2.204 2.204 0 0 0-2.23.06c-.713.44-1.126 1.22-1.165 2.036a6.46 6.46 0 0 1-4.46-.497l1.398-2.583c.464.2.97.31 1.501.31z"/></symbol><symbol id="macos" viewBox="0 0 16 18"><path d="M14.748 13.966a9.667 9.667 0 0 1-.956 1.72c-.503.716-.914 1.212-1.232 1.488-.491.452-1.018.683-1.582.696-.405 0-.894-.115-1.462-.349-.57-.232-1.095-.347-1.574-.347-.503 0-1.042.115-1.619.347-.577.234-1.042.356-1.398.368-.541.023-1.08-.215-1.618-.715-.344-.3-.774-.814-1.288-1.541-.553-.778-1.007-1.679-1.363-2.706-.38-1.11-.571-2.184-.571-3.224 0-1.192.257-2.22.773-3.081a4.536 4.536 0 0 1 1.62-1.638 4.356 4.356 0 0 1 2.189-.618c.43 0 .993.133 1.693.394.698.262 1.147.395 1.343.395.147 0 .645-.155 1.49-.465.798-.287 1.472-.406 2.024-.36 1.496.121 2.62.711 3.367 1.773-1.338.811-2 1.947-1.986 3.403.012 1.135.423 2.079 1.232 2.828a4.05 4.05 0 0 0 1.232.808c-.099.287-.203.561-.314.824zM11.317.466c0 .889-.325 1.719-.972 2.487-.782.914-1.727 1.442-2.752 1.359a2.768 2.768 0 0 1-.02-.337c0-.854.37-1.768 1.03-2.515.33-.378.75-.692 1.257-.943.508-.247.987-.384 1.438-.407.013.119.019.237.019.355z"/></symbol><symbol id="centos" viewBox="0 0 18 18"><path d="M6.76 2.802L6.563 3h1.604v-.198H6.76zm-.562 0H6L8.817 0l.091.092L9 0l3 3h3v3l.198.198V6L18 8.817l-.092.09L18 9l-3 3v3h-3l-.198.198H12L9.183 18l-.091-.092L9 18l-3-3H3v-3l-.198-.198V12L0 9.183l.092-.09L0 9l3-3V3h3l.198-.198zm5.042 0H9.467V3h1.97l-.197-.198zM15 6.562v1.605h.198V6.76L15 6.563zm.198 4.678V9.467H15v1.97l.198-.197zM11.438 15H9.833v.198h1.407l.198-.198zm-4.678.198h1.773V15h-1.97l.197.198zM3 11.438V9.832h-.198v1.407l.198.197zM2.802 6.76v1.773H3v-1.97l-.198.197zm6.194 1.11L9 7.876l.417-.417v-.01l-.421.423zm.42.15L9 8.439l-.406-.407v.552H8.02L8.438 9l-.407.406h.552v.574L9 9.563l.406.406v-.552h.573L9.563 9l.406-.406h-.552V8.02zm.713.976L10.125 9l.417.417h.01l-.423-.421zm-1.125 1.133L9 10.125l-.417.417v.01l.421-.423zM7.871 9.004L7.875 9l-.417-.417h-.01l.423.421z"/></symbol><symbol id="telegram" viewBox="0 0 32 32"><path d="M16 32C7.163 32 0 24.837 0 16S7.163 0 16 0s16 7.163 16 16-7.163 16-16 16zm-2.661-12.746l-.272 4.08c.4 0 .576-.184.8-.4l1.921-1.87 3.999 2.955c.735.406 1.267.195 1.45-.684l2.624-12.368c.27-1.077-.41-1.566-1.114-1.246L7.335 15.663c-1.052.422-1.046 1.01-.192 1.27l3.955 1.235 9.157-5.776c.432-.263.829-.122.503.167l-7.419 6.695z"/></symbol><symbol id="slack" viewBox="0 0 32 32"><path d="M16 32C7.163 32 0 24.837 0 16S7.163 0 16 0s16 7.163 16 16-7.163 16-16 16zm-4.706-13.246v-1.858H9.437a1.862 1.862 0 0 0-1.858 1.858c0 1.022.835 1.858 1.858 1.858a1.862 1.862 0 0 0 1.857-1.858zm.936 0v4.651c0 1.023.836 1.858 1.858 1.858s1.858-.835 1.858-1.858v-4.651c0-1.022-.835-1.858-1.858-1.858s-1.858.836-1.858 1.858zm1.858-7.46h1.858V9.437c0-1.023-.835-1.858-1.858-1.858s-1.858.835-1.858 1.858c0 1.022.836 1.857 1.858 1.857zm0 .936H9.437a1.862 1.862 0 0 0-1.858 1.858c0 1.023.835 1.858 1.858 1.858h4.651c1.023 0 1.858-.835 1.858-1.858s-.835-1.858-1.858-1.858zm7.46 1.858v1.858h1.857c1.023 0 1.858-.835 1.858-1.858s-.835-1.858-1.858-1.858-1.857.836-1.857 1.858zm-.936 0V9.437a1.862 1.862 0 0 0-1.858-1.858 1.862 1.862 0 0 0-1.858 1.858v4.651c0 1.023.836 1.858 1.858 1.858a1.862 1.862 0 0 0 1.858-1.858zm-1.858 7.46h-1.858v1.857c0 1.023.836 1.858 1.858 1.858a1.862 1.862 0 0 0 1.858-1.858 1.862 1.862 0 0 0-1.858-1.857zm0-.936h4.651a1.862 1.862 0 0 0 1.858-1.858 1.862 1.862 0 0 0-1.858-1.858h-4.651a1.862 1.862 0 0 0-1.858 1.858c0 1.022.836 1.858 1.858 1.858z"/></symbol><symbol id="docker" viewBox="0 0 32 32"><path d="M16 32C7.163 32 0 24.837 0 16S7.163 0 16 0s16 7.163 16 16-7.163 16-16 16zm-5.575-12.231c0-.566.452-1.03 1.054-1.03.6 0 1.053.464 1.053 1.03 0 .566-.502 1.03-1.053 1.03-.553 0-1.054-.464-1.054-1.03zm13.983-4.582c-.109-.825-.605-1.493-1.259-2.01l-.254-.206-.206.258c-.4.464-.557 1.288-.509 1.904.049.465.194.928.448 1.289-.206.103-.46.206-.654.308a4.19 4.19 0 0 1-1.356.207H7.662l-.049.308c-.097.98.049 2.009.454 2.937l.201.36v.05c1.211 2.061 3.367 2.987 5.716 2.987 4.517 0 8.223-2.007 9.979-6.334 1.15.053 2.313-.257 2.858-1.39l.145-.257-.242-.154c-.654-.411-1.55-.464-2.301-.258l-.015.001zm-8.427-.825v2.01h1.962v-2.01h-1.962zm0-2.523v2.007h1.962V11.84l-1.962-.001zm0-2.576v2.007h1.962V9.264h-1.962zm2.41 5.1v2.009h1.955v-2.01H18.39zm-7.266 0v2.009h1.955v-2.01h-1.955zm4.395 0h-1.938v2.009h1.95v-2.01h-.012zm-4.868 0H8.715v2.009h1.962v-2.01h-.025zm4.868-2.524h-1.938v2.007h1.95V11.84l-.012-.001zm-2.459 0h-1.937v2.007h1.95V11.84l-.013-.001z"/></symbol><symbol id="github" viewBox="0 0 32 32"><path d="M29.854 8.169c-1.431-2.513-3.372-4.503-5.823-5.97C21.579.734 18.903 0 16 0c-2.903 0-5.58.733-8.031 2.2-2.452 1.466-4.392 3.456-5.823 5.969C.716 10.68 0 13.425 0 16.4c0 3.573 1.017 6.787 3.052 9.642 2.035 2.854 4.663 4.83 7.885 5.926.375.07.653.02.833-.15a.842.842 0 0 0 .271-.64l-.01-1.153c-.007-.727-.01-1.36-.01-1.9l-.48.084c-.305.058-.69.082-1.156.075a8.601 8.601 0 0 1-1.448-.15 3.198 3.198 0 0 1-1.396-.64 2.709 2.709 0 0 1-.916-1.313l-.209-.491a5.362 5.362 0 0 0-.656-1.09c-.299-.398-.6-.668-.906-.81l-.146-.108a1.544 1.544 0 0 1-.27-.256c-.084-.1-.146-.2-.188-.3-.042-.099-.007-.18.104-.245.111-.064.312-.096.604-.096l.417.064c.278.057.621.228 1.031.513.41.284.746.655 1.01 1.11.32.584.705 1.029 1.157 1.335.45.306.906.459 1.364.459s.854-.036 1.187-.107c.334-.07.646-.178.938-.32.125-.954.465-1.688 1.02-2.2a13.95 13.95 0 0 1-2.135-.384 8.388 8.388 0 0 1-1.958-.834 5.644 5.644 0 0 1-1.677-1.43c-.444-.57-.81-1.317-1.094-2.243-.284-.925-.427-1.993-.427-3.203 0-1.723.55-3.19 1.646-4.4-.514-1.295-.465-2.747.146-4.356.403-.128 1-.032 1.792.289.791.32 1.371.594 1.74.822.367.227.662.42.885.576 1.292-.37 2.625-.555 4-.555s2.708.185 4 .555l.792-.512c.541-.342 1.18-.655 1.916-.94.736-.284 1.299-.363 1.688-.234.625 1.608.68 3.06.166 4.356 1.097 1.21 1.646 2.677 1.646 4.4 0 1.21-.142 2.28-.427 3.213-.284.933-.652 1.68-1.103 2.242a5.858 5.858 0 0 1-1.688 1.42 8.404 8.404 0 0 1-1.959.833c-.632.171-1.343.3-2.135.385.722.64 1.083 1.652 1.083 3.033v4.505c0 .256.087.47.26.64.174.171.448.221.824.15 3.222-1.096 5.85-3.071 7.885-5.926C30.982 23.188 32 19.974 32 16.4c0-2.975-.716-5.719-2.146-8.231z"/></symbol><symbol id="logo" viewBox="0 0 118 36"><path d="M46.08 24.24c-3.32 0-6.2-2.2-6.2-6.64 0-4.36 3-6.84 6.28-6.84 1.72 0 3.12.8 4.04 1.72l-1.8 2.2c-.64-.56-1.28-.96-2.16-.96-1.52 0-2.84 1.4-2.84 3.76 0 2.44 1.12 3.8 2.8 3.8 1 0 1.8-.52 2.36-1.12l1.8 2.16c-1.1 1.28-2.6 1.92-4.28 1.92zm9.22-5.66h2.4l-.22-.9c-.32-1.24-.64-2.82-.96-4.12h-.08c-.28 1.32-.6 2.88-.92 4.12l-.22.9zM58.96 24l-.64-2.76h-3.64L54.04 24h-3.52l3.96-13h4.16l3.96 13h-3.64zm8.32-10.28v3.2h1.24c1.36 0 2.08-.6 2.08-1.72s-.72-1.48-2.08-1.48h-1.24zM74.68 24h-3.84l-2.24-4.36h-1.32V24h-3.44V11h4.92c2.8 0 5.2.96 5.2 4.2 0 1.86-.84 3.08-2.1 3.76L74.68 24zm5.2-10.28v3.2h1.24c1.36 0 2.08-.6 2.08-1.72s-.72-1.48-2.08-1.48h-1.24zM87.28 24h-3.84l-2.24-4.36h-1.32V24h-3.44V11h4.92c2.8 0 5.2.96 5.2 4.2 0 1.86-.84 3.08-2.1 3.76L87.28 24zm1.76 0V11h3.44v13h-3.44zm6.32 0V11h8.4v2.88H98.8v2.04h4.24v2.88H98.8v2.32h5.16V24h-8.6zm14.56-10.28v3.2h1.24c1.36 0 2.08-.6 2.08-1.72s-.72-1.48-2.08-1.48h-1.24zm7.4 10.28h-3.84l-2.24-4.36h-1.32V24h-3.44V11h4.92c2.8 0 5.2.96 5.2 4.2 0 1.86-.84 3.08-2.1 3.76l2.82 5.04zM0 8.881v17.762l3.542 2.044V10.926l8.883-5.13-3.541-2.044zM15.383 0l-3.538 2.043 5.164 2.98-.002.003 10.218 5.9V21.2l3.54-2.044V8.88zM25.6 25.557l-.008-.015-10.21 5.894-8.88-5.128v4.088l8.88 5.128 15.384-8.88v-4.07z"/><path d="M10.192 20.76v-5.995l5.19-2.997 5.168 2.984-2.863 1.677-2.305-1.331-2.306 1.332v2.665l2.306 1.332 2.305-1.331 2.863 1.677-5.168 2.984-5.19-2.997zm5.19-12.227L7.39 13.148v9.229l7.992 4.614 7.994-4.614v-9.229l-7.994-4.615z"/></symbol><symbol id="video-play" viewBox="0 0 80 80"><path d="M40 80C17.909 80 0 62.091 0 40S17.909 0 40 0s40 17.909 40 40-17.909 40-40 40zm19.149-39.583l-31.49-17.5v35l31.49-17.5z"/></symbol><symbol id="platforms-title" viewBox="0 0 131 76"><path d="M11.67 1.912l-.026-.017L8.994.388.748 5.246l1.494.85 3.02-1.787 1.213.694c1.812 1.032 4.048 1.323 5.875.247 1.906-1.122 1.159-2.277-.68-3.338m-5.235 1.71l2.873-1.693 1.04.593.066.037c1.196.691 1.477 1.257.467 1.858-1.01.594-2.104.534-3.355-.174l-1.091-.622m12.367 1.592l-1.48-.84-7.308 4.305c-1.066.628-1.352 1.24-.316 1.839l.015.008c.35.196.657.314.912.373l.893-.75c-.14-.05-.192-.081-.255-.117-.004-.002-.007-.005-.011-.006-.15-.087-.185-.257.16-.458l7.39-4.354m2.293 4.27l-.016-.009c-1.002-.57-2.283-.862-3.404-1.003l-.434.881c.892.126 1.764.3 2.377.652l.015.01c.845.487.566.962-.064 1.36-2.871-1.314-4.686-1.546-6.011-.76-1.081.634-1.055 1.492.035 2.122a.11.11 0 0 1 .015.008c.747.424 1.759.575 2.79.62l.05.028-.575.461 1.219.697 3.667-2.16c1.719-1.014 1.884-2.013.336-2.907M15.2 12.335c-.513-.297-.65-.657-.1-.977.616-.365 1.628-.303 3.56.55l-1.381.817c-.905-.014-1.547-.085-2.06-.38a.075.075 0 0 0-.02-.01m13.364-.376l-1.232-.704-1.866.891-1.04-.519-1.085.638.9.512-2.955 1.74c-1.324.784-1.692 1.618-.259 2.445l.03.018c.498.287 1.047.471 1.512.6l.816-.777a3.03 3.03 0 0 1-.812-.301c-.59-.34-.517-.709.206-1.138l2.95-1.735 1.608.914 1.15-.675-1.61-.914 1.687-.995m6.82 2.525c-.014-.008-.027-.016-.04-.022-1.487-.852-3.026-.646-4.314.11l-.641.38-.913-.447-1.084.638.848.484-5.036 2.97 1.475.845 5.043-2.976 1.232.705 1.148-.674-1.232-.705.666-.395c.717-.424 1.327-.453 1.845-.16.217.124.408.294.536.485l1.373-.479a3.175 3.175 0 0 0-.906-.759m1.777 4.15l-.025-.014c-1.57-.892-4.18-1.01-6.248.206-2.044 1.204-1.814 2.708-.266 3.602a.55.55 0 0 1 .025.015c1.583.899 4.193 1.017 6.242-.196 2.057-1.21 1.833-2.712.272-3.613m-5.345 3.102c-.913-.527-.64-1.316.585-2.043 1.256-.738 2.623-.904 3.548-.376a.097.097 0 0 0 .011.005c.913.528.661 1.329-.584 2.059-1.23.73-2.623.889-3.549.36l-.01-.005m13.28 1.414c-.67-.38-1.784-.502-3.036-.284l-.052-.029.995-.705-1.225-.693-6.191 3.643 1.482.84 3.779-2.227c1.316-.328 2.265-.185 2.769.1.268.155.396.272.55.435l1.524-.598c-.11-.158-.276-.298-.595-.482m9.054 5.154l-.014-.008c-.798-.453-1.912-.53-3.146-.501.397-.58.286-1.121-.633-1.651-.786-.446-1.849-.538-2.93-.51l-.052-.028.742-.557-1.22-.697-6.19 3.64 1.481.85 4.32-2.547c1.004-.03 1.711.077 2.095.298l.016.01c.653.377.572.773-.435 1.373l-3.69 2.175 1.473.843 4.327-2.55c.998-.026 1.693.074 2.088.302l.016.009c.641.369.565.77-.447 1.366l-3.692 2.175 1.495.848 3.881-2.285c1.555-.92 1.833-1.793.515-2.555m9.729 5.544l-.025-.015c-1.686-.96-4.347-1.106-6.414.11-2.045 1.203-1.915 2.65-.217 3.63l.027.016c.722.409 1.709.686 2.81.727l.352-.907c-.65-.038-1.344-.152-1.83-.431a.075.075 0 0 0-.011-.007c-.977-.564-.844-1.435.38-2.161 1.25-.733 2.778-.815 3.793-.236l.022.012c.386.223.535.499.575.854l1.666-.148c-.066-.488-.337-.988-1.128-1.444m5.784 3.295l-.025-.015c-1.57-.9-4.18-1.01-6.248.207-2.044 1.203-1.814 2.708-.266 3.602l.025.014c1.583.9 4.187 1.014 6.248-.2 2.057-1.21 1.827-2.707.266-3.608m-5.345 3.102c-.913-.528-.64-1.324.591-2.047 1.25-.734 2.617-.9 3.542-.372a.097.097 0 0 0 .011.005c.913.528.66 1.328-.584 2.058-1.23.73-2.624.889-3.549.36l-.01-.004m17.228 3.663c-.01-.006-.02-.01-.028-.016-.791-.457-1.906-.535-3.14-.505.395-.575.288-1.113-.618-1.636l-.022-.012c-.785-.446-1.841-.542-2.923-.512l-.051-.029.74-.558-1.22-.696-6.195 3.646 1.48.84 4.327-2.543c1.005-.03 1.706.081 2.095.298.664.384.596.78-.42 1.382l-3.697 2.18 1.482.84 4.319-2.547c1.006-.03 1.693.073 2.096.298l.015.01c.64.37.566.77-.447 1.365l-3.691 2.174 1.487.853 3.876-2.29c1.56-.915 1.845-1.786.535-2.542m7.35 4.186l-.023-.015c-.69-.397-1.742-.57-2.715-.611l-.05-.03.557-.442-1.22-.697-8.639 5.088 1.482.84 1.94-1.143.995-.63c.085.536.381.998.923 1.312l.021.012c1.398.799 3.924.818 6.037-.432 1.906-1.122 2.236-2.361.692-3.252m-5.85 2.803c-.37-.214-.665-.546-.75-1.03l2.88-1.702c.96.003 1.623.12 2.09.383l.011.007c.936.54.613 1.205-.618 1.929-1.396.825-2.777.887-3.613.413m12.727 1.108l-.024-.014c-1.57-.892-4.18-1.003-6.248.214-2.044 1.202-1.815 2.7-.26 3.598l.025.015c1.577.902 4.187 1.013 6.241-.196 2.058-1.211 1.828-2.716.266-3.617m-5.338 3.105c-.913-.527-.647-1.32.585-2.043 1.25-.733 2.623-.903 3.55-.375a.047.047 0 0 1 .01.005c.913.528.653 1.33-.59 2.062-1.232.73-2.618.885-3.544.358l-.01-.007m13.569 1.581l-.014-.008c-.862-.49-1.944-.594-3.058-.597l-.051-.03.728-.549-1.218-.697-6.185 3.646 1.475.844 4.326-2.55c1.03.006 1.66.054 2.21.372a.114.114 0 0 1 .016.01c.678.39.584.78-.428 1.375l-3.692 2.175 1.482.841 3.882-2.285c1.554-.919 1.858-1.778.527-2.547m6.582 3.75l-.026-.017c-1.482-.84-4.136-.924-6.153.262-2.031 1.195-1.883 2.668-.153 3.667l.027.016c.798.453 1.825.722 2.825.837l.409-.823c-.758-.092-1.383-.26-1.925-.567l-.016-.009c-1.001-.578-1.09-1.355-.124-2.07l4.016 2.281c.19-.066.496-.214.774-.376 1.717-1.012 2.028-2.23.346-3.202m-4.165.71c1.123-.512 2.313-.464 3.06-.04l.014.008c.847.49.68 1.067-.271 1.63l-2.803-1.598m11.955 3.729l-.027-.016c-.863-.49-1.94-.597-3.052-.601l-.051-.03.729-.548-1.22-.698-6.191 3.65 1.482.84 4.319-2.546c1.037.003 1.66.054 2.217.368.69.398.608.785-.412 1.387l-3.692 2.173 1.475.845 3.882-2.286c1.549-.915 1.863-1.775.54-2.538m7.306 2.372l-1.245-.703-1.866.891-1.04-.519-1.078.642.9.511-2.95 1.737c-1.33.78-1.704 1.618-.264 2.449.01.006.02.012.03.016.504.285 1.046.465 1.505.598l.817-.778a3.433 3.433 0 0 1-.797-.291c-.601-.346-.533-.711.197-1.143l2.955-1.739 1.604.917 1.14-.678-1.601-.918 1.693-.992m3.595 3.833l-.023-.014c-1.412-.806-3.066-.858-4.15-.22-1.035.607-.559 1.419-.034 2.075.423.53.878 1.05.357 1.352-.423.255-1.06.255-1.744-.132l-.022-.013c-.629-.363-.9-.819-1.035-1.392l-1.629.156c.13.635.667 1.362 1.515 1.852l.023.013c1.59.91 3.308.895 4.367.272 1.161-.681.616-1.46.071-2.141-.442-.528-.884-.996-.396-1.287.393-.229.98-.236 1.604.125l.023.013c.495.285.721.664.844 1.09l1.558-.13c-.117-.518-.472-1.124-1.329-1.619"/></symbol><symbol id="elastic-title" viewBox="0 0 75 45"><path d="M44.338 3.29L39.268.407l-8.24 4.855 5.192 2.96 1.236-.726-3.702-2.108 2.435-1.439 3.02 1.722 1.236-.727-3.02-1.72 2.1-1.243 3.576 2.035zm4.177 1.618l-1.481-.84-7.307 4.305c-1.073.631-1.353 1.24-.316 1.838a3.359 3.359 0 0 0 .926.381l.894-.748c-.141-.052-.192-.082-.262-.115-.152-.089-.192-.258.156-.467l7.39-4.354m2.293 4.27l-.016-.01c-1.008-.566-2.283-.861-3.404-1.001l-.434.88c.898.13 1.764.299 2.377.653l.015.008c.844.488.56.967-.064 1.367-2.871-1.32-4.686-1.544-6.012-.766-1.08.635-1.055 1.492.036 2.122l.014.008c.747.424 1.76.575 2.785.623l.057.026-.577.46 1.22.697 3.666-2.16c1.72-1.013 1.885-2.013.337-2.907m-5.894 2.852c-.513-.297-.645-.653-.1-.977.616-.365 1.622-.3 3.56.557l-1.388.814c-.898-.018-1.541-.088-2.052-.383a.128.128 0 0 0-.02-.011m12.343.82l-.023-.013c-1.417-.803-3.073-.855-4.157-.217-1.034.608-.558 1.419-.027 2.072.417.526.872 1.054.352 1.356-.425.254-1.062.254-1.745-.133-.638-.37-.921-.833-1.058-1.404l-1.622.152c.124.638.66 1.365 1.509 1.855a.267.267 0 0 0 .023.013c1.596.907 3.314.892 4.373.269 1.16-.682.609-1.464.064-2.137-.442-.528-.883-1.003-.388-1.291.386-.232.97-.232 1.604.125.498.288.736.667.859 1.106l1.565-.133c-.13-.518-.472-1.124-1.33-1.62m6.83 2.114l-1.231-.704-1.867.892-1.04-.52-1.085.638.9.512-2.942 1.74c-1.336.784-1.704 1.618-.271 2.445l.03.018c.498.287 1.053.467 1.512.6l.816-.777a3.212 3.212 0 0 1-.812-.301c-.59-.34-.51-.706.213-1.133l2.942-1.74 1.609.914 1.149-.675-1.61-.914 1.688-.995m5.049 1.659c-.53-.299-1.255-.321-1.743-.03-.478.278-.437.696.08.995a.11.11 0 0 1 .015.008c.523.302 1.254.32 1.73.037.488-.291.44-.708-.082-1.01m-2.006 2.03l-1.474-.843-6.185 3.645 1.476.845 6.183-3.647m5.144 2.75l-.024-.015c-1.686-.958-4.354-1.1-6.42.115-2.039 1.207-1.91 2.646-.212 3.626a.24.24 0 0 1 .027.016c.716.412 1.717.69 2.812.726l.35-.906c-.642-.034-1.337-.148-1.822-.428l-.012-.007c-.976-.564-.85-1.438.381-2.16 1.244-.738 2.771-.82 3.786-.24.396.228.563.508.603.87l1.667-.148c-.079-.489-.344-.992-1.136-1.449M8.147 2.404l-.024-.014c-1.686-.958-4.354-1.102-6.421.115C-.335 3.711-.208 5.15 1.49 6.131c.01.004.018.01.027.015.716.413 1.717.69 2.812.727l.35-.907c-.642-.034-1.337-.148-1.822-.428l-.012-.006c-.976-.565-.85-1.439.375-2.165 1.25-.734 2.777-.815 3.79-.236.398.228.558.505.605.87l1.667-.148c-.08-.488-.345-.992-1.136-1.449M13.932 5.7l-.025-.015c-1.572-.89-4.181-1.009-6.248.207-2.04 1.206-1.814 2.708-.266 3.602l.024.015c1.584.9 4.194 1.016 6.248-.193 2.05-1.214 1.827-2.715.267-3.616m-5.34 3.105c-.912-.527-.646-1.32.579-2.046 1.256-.738 2.623-.904 3.549-.376l.01.005c.914.528.66 1.328-.577 2.062-1.238.727-2.623.89-3.55.361l-.01-.006M25.8 12.458l-.014-.008c-.798-.454-1.912-.531-3.14-.505.395-.575.289-1.112-.618-1.635l-.021-.013c-.785-.445-1.85-.538-2.924-.512l-.051-.03.742-.556-1.226-.693-6.185 3.645 1.48.841 4.32-2.548c1-.025 1.707.081 2.09.303a.15.15 0 0 1 .017.01c.652.376.578.776-.436 1.372l-3.691 2.176 1.48.84 4.32-2.547c1.012-.027 1.694.073 2.089.301a.15.15 0 0 1 .017.01c.64.369.564.77-.448 1.365l-3.692 2.175 1.495.848 3.88-2.285c1.556-.918 1.835-1.792.516-2.554m7.365 4.193a.722.722 0 0 0-.023-.014c-.697-.394-1.748-.567-2.708-.608L30.383 16l.552-.447-1.227-.693-8.632 5.084 1.481.84 1.941-1.143.995-.63c.085.542.381.998.923 1.312l.021.012c1.398.8 3.917.821 6.036-.432 1.906-1.122 2.236-2.36.693-3.252m-5.844 2.806c-.37-.214-.677-.545-.757-1.033l2.886-1.699c.955 0 1.617.118 2.084.38a.075.075 0 0 0 .012.007c.936.541.612 1.206-.619 1.93-1.396.825-2.77.89-3.606.415m12.721 1.113l-.025-.015c-1.564-.895-4.18-1.009-6.248.207-2.044 1.203-1.814 2.708-.265 3.602l.024.015c1.584.9 4.2 1.013 6.248-.2 2.057-1.21 1.827-2.708.266-3.609m-5.338 3.105c-.92-.53-.641-1.324.584-2.05 1.25-.734 2.617-.9 3.543-.372l.011.005c.913.528.66 1.328-.585 2.06-1.231.73-2.616.891-3.542.363l-.011-.006m13.583 1.59l-.027-.017c-.863-.49-1.946-.6-3.052-.6l-.052-.03.73-.55-1.22-.696-6.19 3.65 1.48.84 4.32-2.547c1.031 0 1.655.052 2.21.365l.017.01c.678.39.59.784-.422 1.38l-3.692 2.174 1.475.845 3.881-2.286c1.556-.92 1.863-1.775.542-2.538m6.568 3.74l-.026-.015c-1.476-.844-4.142-.93-6.16.258-2.037 1.198-1.869 2.676-.138 3.675a.091.091 0 0 1 .013.008c.798.453 1.837.722 2.831.833l.402-.82c-.75-.094-1.376-.256-1.912-.566l-.016-.01c-1-.577-1.088-1.354-.123-2.07l4.01 2.286c.19-.066.488-.218.766-.38 1.717-1.011 2.034-2.228.353-3.2m-4.159.709c1.124-.513 2.307-.47 3.048-.041l.014.008c.846.489.694 1.068-.259 1.629l-2.803-1.596m11.943 3.72l-.015-.01c-.862-.488-1.95-.595-3.051-.6l-.051-.03.728-.547-1.225-.694-6.185 3.646 1.482.84 4.319-2.547c1.024.004 1.655.05 2.204.369l.018.01c.676.39.589.776-.424 1.379l-3.692 2.175 1.482.84 3.876-2.288c1.56-.915 1.864-1.774.534-2.543m7.304 2.38l-1.232-.704-1.867.891-1.04-.519-1.084.638.9.511-2.949 1.737c-1.33.788-1.698 1.623-.265 2.45l.03.016c.498.289 1.053.469 1.512.602l.81-.782c-.254-.06-.574-.161-.796-.29l-.016-.01c-.584-.336-.51-.706.213-1.134l2.95-1.735 1.607.914 1.15-.675-1.61-.914 1.687-.996m3.609 3.832l-.023-.014c-1.424-.807-3.08-.858-4.164-.22-1.027.611-.558 1.42-.026 2.071.423.531.878 1.051.363 1.356-.43.251-1.073.255-1.755-.132-.64-.369-.916-.83-1.046-1.405l-1.628.156c.117.635.66 1.365 1.508 1.855a.267.267 0 0 0 .023.013c1.596.907 3.314.892 4.374.27 1.154-.686.608-1.465.063-2.138-.448-.532-.883-1.003-.394-1.294.392-.229.978-.229 1.61.128.498.288.736.667.853 1.102l1.564-.133c-.123-.514-.465-1.12-1.322-1.615"/></symbol><symbol id="integration-title" viewBox="0 0 127 74"><path d="M13.398 3.244L8.328.354.084 5.214l5.203 2.96 1.23-.73-3.702-2.11L5.243 3.9l3.026 1.726 1.23-.73-3.02-1.722 2.107-1.239 3.575 2.036zm4.424 4.9l-1.532-.87-1.774.343c-.496.11-1.043.228-1.538.339l-.05-.03c.15-.31.307-.645.464-.943l.472-1.096-1.603-.91-1.079 2.816-5.233.756 1.54.88 1.894-.338a110 110 0 0 1 1.652-.332l.052.03c-.139.332-.296.68-.459 1.013l-.446 1.16 1.596.909 1.053-2.95 4.991-.777m4.643.689l-1.231-.705-1.867.892-1.04-.519-1.085.638.9.511-2.955 1.741c-1.33.78-1.698 1.614-.258 2.445l.03.018c.498.287 1.053.467 1.505.596l.816-.777c-.254-.06-.58-.166-.796-.292l-.016-.009c-.59-.34-.51-.706.213-1.134l2.949-1.735 1.609.914 1.148-.675-1.61-.914 1.688-.995m4.033 4.077l-.025-.016c-1.482-.847-4.143-.928-6.16.26-2.032 1.194-1.883 2.667-.153 3.665l.027.016c.798.454 1.832.72 2.831.833l.403-.819c-.752-.095-1.383-.26-1.919-.57a.819.819 0 0 1-.03-.017c-.993-.574-1.063-1.347-.109-2.063l4.009 2.286c.191-.066.495-.214.774-.376 1.717-1.012 2.028-2.232.352-3.199m-4.165.703c1.124-.512 2.314-.464 3.055-.036l.013.008c.847.488.687 1.063-.265 1.625l-2.803-1.597m11.713 3.595l-.065-.037c-.671-.387-1.78-.505-3.032-.287l-.05-.03.982-.705-1.22-.696-6.184 3.646 1.475.843 3.78-2.226c1.322-.331 2.27-.188 2.769.099.269.156.402.27.557.432l1.51-.598c-.095-.15-.246-.282-.522-.441m5.356 3.049a.644.644 0 0 1-.027-.016c-.863-.49-1.939-.596-3.052-.6l-.052-.03.73-.55-1.22-.696-6.19 3.65 1.48.84 4.32-2.547c1.037.004 1.655.052 2.217.369l.017.01c.677.39.584.78-.429 1.376l-3.69 2.174 1.473.844 3.882-2.285c1.55-.915 1.862-1.775.541-2.54m6.578 3.74l-.016-.01c-1.008-.567-2.283-.855-3.404-1.003l-.435.882c.899.13 1.765.306 2.384.656a.071.071 0 0 1 .015.008c.844.487.554.963-.07 1.363-2.871-1.32-4.686-1.544-6.012-.767-1.073.64-1.055 1.493.036 2.123l.014.008c.747.424 1.759.575 2.79.627l.052.03-.583.456 1.226.693 3.666-2.16c1.72-1.014 1.884-2.013.337-2.907m-5.894 2.852c-.513-.297-.645-.653-.1-.977.622-.36 1.62-.299 3.56.557l-1.388.814c-.898-.018-1.541-.089-2.051-.383l-.021-.01m14.358-.992l-1.48-.842-7.308 4.306c-1.056.628-1.35 1.234-.324 1.826a3.36 3.36 0 0 0 .934.393l.894-.748a1.387 1.387 0 0 1-.256-.119c-.152-.088-.19-.257.163-.463l7.377-4.354m5.418 6.045c-1.686-.958-4.353-1.102-6.414.118-2.044 1.203-1.92 2.647-.224 3.627.01.005.02.01.028.016.721.41 1.722.685 2.817.73l.357-.912c-.656-.032-1.343-.15-1.835-.427a.024.024 0 0 0-.01-.006c-.979-.565-.846-1.442.386-2.166 1.244-.737 2.777-.814 3.791-.235.397.23.551.51.598.866l1.666-.147c-.073-.49-.355-.999-1.16-1.464m5.81 3.31a.201.201 0 0 1-.025-.014c-1.571-.892-4.181-1.009-6.248.214-2.044 1.202-1.814 2.7-.266 3.595a.201.201 0 0 1 .025.014c1.583.907 4.194 1.017 6.248-.192 2.057-1.21 1.827-2.716.266-3.617m-5.34 3.106c-.912-.527-.646-1.32.586-2.044 1.243-.737 2.617-.907 3.549-.375l.01.005c.907.524.648 1.329-.59 2.063-1.237.725-2.617.885-3.543.357l-.011-.006m17.209 3.653l-.014-.01c-.798-.452-1.906-.525-3.14-.504.394-.567.288-1.112-.619-1.635l-.021-.012c-.785-.446-1.842-.534-2.924-.513l-.057-.025.741-.557-1.219-.697-6.185 3.646 1.475.844 4.326-2.551c1.005-.022 1.706.08 2.089.303l.017.009c.653.377.578.777-.435 1.373l-3.691 2.175 1.474.843 4.326-2.55c1.005-.022 1.693.074 2.095.306l.016.009c.641.37.559.766-.453 1.362L71.65 45.96l1.495.848 3.881-2.285c1.555-.92 1.834-1.793.516-2.554m7.352 4.185l-.012-.007c-.696-.394-1.747-.567-2.708-.607l-.05-.03.55-.446-1.225-.693-8.626 5.087 1.475.843 1.94-1.142.997-.63c.084.542.386 1.003.935 1.32 1.406.795 3.926.818 6.044-.428 1.91-1.125 2.232-2.37.68-3.267m-5.855 2.8c-.366-.21-.65-.539-.732-1.019l2.886-1.699c.954.007 1.617.118 2.083.387a.054.054 0 0 0 .013.007c.935.541.612 1.198-.614 1.924-1.401.823-2.775.89-3.612.413-.008-.004-.017-.008-.024-.013m12.744 1.126l-.024-.014c-1.572-.892-4.18-1.009-6.243.21-2.044 1.203-1.819 2.704-.27 3.6a.188.188 0 0 1 .023.013c1.584.9 4.194 1.017 6.25-.192 2.056-1.21 1.826-2.716.264-3.617m-5.338 3.105c-.913-.526-.647-1.319.585-2.043 1.25-.74 2.616-.907 3.542-.379l.011.006c.92.531.667 1.331-.578 2.062-1.237.726-2.623.888-3.549.361a.067.067 0 0 1-.01-.007m13.583 1.59a.349.349 0 0 1-.028-.017c-.863-.49-1.95-.597-3.052-.6l-.05-.03.728-.549-1.226-.694-6.185 3.647 1.482.84 4.32-2.547c1.036.004 1.654.052 2.21.364.69.398.614.79-.406 1.391l-3.698 2.177 1.481.841 3.882-2.285c1.55-.915 1.863-1.776.542-2.539m6.568 3.742l-.026-.016c-1.475-.843-4.142-.928-6.16.258-2.025 1.199-1.876 2.672-.152 3.667.009.006.019.01.027.016.798.454 1.837.722 2.836.837l.404-.82c-.758-.09-1.382-.26-1.926-.566l-.015-.01c-1.001-.577-1.082-1.357-.117-2.073l4.01 2.286c.189-.066.494-.214.767-.38 1.722-1.01 2.034-2.228.352-3.2m-4.158.708c1.123-.513 2.3-.465 3.048-.04l.013.008c.846.488.694 1.067-.26 1.628l-2.801-1.596m11.94 3.72a.11.11 0 0 1-.014-.009c-.861-.49-1.95-.596-3.05-.6l-.06-.027.73-.549-1.22-.696-6.183 3.646 1.475.843 4.325-2.55c1.03.007 1.655.051 2.204.368l.017.01c.677.391.59.784-.422 1.38l-3.692 2.175 1.48.84 3.883-2.285c1.554-.919 1.859-1.778.528-2.547m7.305 2.381l-1.232-.704-1.866.892-1.047-.516-1.084.638.9.512-2.942 1.74c-1.334.783-1.702 1.62-.256 2.454l.014.008c.505.285 1.053.468 1.518.597l.817-.777a3.037 3.037 0 0 1-.798-.29c-.004-.004-.01-.007-.015-.01-.59-.34-.517-.71.207-1.138l2.949-1.736 1.609.914 1.148-.675-1.61-.914 1.688-.995m3.608 3.832l-.023-.013c-1.417-.803-3.072-.855-4.157-.217-1.034.608-.558 1.418-.026 2.071.416.527.871 1.055.352 1.357-.426.254-1.062.254-1.746-.133l-.022-.013c-.628-.363-.894-.823-1.035-1.392l-1.622.152c.123.64.66 1.366 1.509 1.856l.022.013c1.597.906 3.314.891 4.374.268 1.16-.68.608-1.463.063-2.137-.441-.528-.889-1-.394-1.287.392-.236.978-.236 1.61.121.498.29.736.667.86 1.107l1.564-.133c-.129-.518-.471-1.125-1.329-1.62"/></symbol></defs></svg>