<svg xmlns="http://www.w3.org/2000/svg">
  <defs>
    <symbol id="windows" viewBox="0 0 18 18">
      <path
        d="M0 2.53677273l7.29961364-.99413182.00319091 7.04106818-7.29613637.04154932L0 2.53677273zm7.29613636 6.85820454l.00566591 7.04720453-7.29613636-1.0031113-.0004091-6.09136368 7.29087955.04727045zm.88488409-7.98238636L17.8597023 0v8.49415909l-9.67868185.0768375V1.41259091zM17.8619523 9.46125l-.0022705 8.4559091L8.181 16.5511227l-.01356136-7.10570452L17.8619523 9.46125z"/>
    </symbol>
    <symbol id="ubuntu" viewBox="0 0 18 18">
      <path
        d="M2.62899906 10.7399803c-.89967136 0-1.6289991-.77837612-1.6289991-1.73855169s.72932774-1.73855167 1.6289991-1.73855167c.89967136 0 1.62899909.7783761 1.62899909 1.73855167 0 .96017557-.72932773 1.73855169-1.62899909 1.73855169zM14.309801 17.9356106c-.8996713 0-1.6289991-.7783761-1.6289991-1.7385517 0-.9601755.7293278-1.7385516 1.6289991-1.7385516.8996714 0 1.6289991.7783761 1.6289991 1.7385516 0 .9601756-.7293277 1.7385517-1.6289991 1.7385517zm-.0014276-14.3941184c-.8996713 0-1.6289991-.7783761-1.6289991-1.73855167 0-.96017557.7293278-1.73855166 1.6289991-1.73855166.8996714 0 1.6289991.7783761 1.6289991 1.73855166 0 .96017557-.7293277 1.73855167-1.6289991 1.73855167zm.0976426 4.84941184c-.2787-2.08401051-1.9616159-3.69146368-3.99000623-3.69146368-.52990599 0-1.03624553.11013619-1.5002699.30944818l-1.39725278-2.5828624c.8950206-.44988122 1.87913165-.68711198 2.89752268-.68711198.53186942 0 1.05409793.0651671 1.55954463.19092801.0396356.81554045.4527767 1.59373374 1.1647933 2.03256308.7114818.43825784 1.5490118.43120753 2.2301408.060975 1.0635611 1.20368439 1.6996985 2.72996443 1.8264612 4.36752379H14.406016zm-8.02072057.61051228c0 1.37003188.60328589 2.59277088 1.54133391 3.38106438l-1.39707391 2.5826719c-.32744205-.2444719-.63702971-.5205754-.92555005-.8284985-.80842827-.8627957-1.38814682-1.9045149-1.70719739-3.0415087.6427431-.4441651 1.0683819-1.21568885 1.0683819-2.09372908 0-.87822983-.4256388-1.64956394-1.0683819-2.09391893.31905057-1.13699332.89876912-2.17871277 1.70719739-3.04150878.28869898-.30792375.59864359-.58440719.92626407-.82868827l1.39689549 2.58248108c-.93822666.78829259-1.54186951 2.01103153-1.54186951 3.3816349zm4.03071434 4.30178688c2.02892513 0 3.71219843-1.6084066 3.99018483-3.69318024h2.7905765c-.1264055 1.63698824-.7618283 3.16307784-1.8244973 4.36695214-.6813087-.3709942-1.5191949-.3780438-2.2308543.0605937-.7125525.43902-1.1258722 1.2185479-1.1647933 2.0350409-.5056253.1257608-1.02856815.1913092-1.56079529.1913092-1.01874776 0-2.00321666-.2374211-2.89805761-.6874922l1.39743108-2.5830533c.46402426.1996934.97054145.3098298 1.50080539.3098298z"/>
    </symbol>
    <symbol id="macos" viewBox="0 0 16 18">
      <path
        d="M14.7479268 13.9664634c-.2689024.6212195-.5871951 1.1930488-.9559756 1.7187805-.5026829.7167073-.9142683 1.2128049-1.2314634 1.4882927-.4917073.4521951-1.0185366.6837805-1.5826829.6969512-.405 0-.8934147-.1152439-1.46195124-.3490244-.57040244-.2326829-1.09459756-.3479268-1.57390244-.3479268-.50268293 0-1.04180488.1152439-1.61846342.3479268-.57753658.2337805-1.04279268.3556098-1.39851219.3676829-.54098781.0230488-1.08021951-.2151219-1.61846341-.7156097-.34353659-.2996342-.77323171-.8132927-1.28798781-1.5409756-.55229268-.7770732-1.00635366-1.6781708-1.36207317-2.7054878C.2754878 11.817439.0845122 10.7429268.0845122 9.70265854c0-1.19162195.2574878-2.21937805.7732317-3.08063415.40532927-.69179268.94456098-1.2375 1.61945122-1.63810976.67489025-.40060975 1.40410976-.60475609 2.18941464-.61781707.42969512 0 .99318292.13291464 1.69342683.39413415.69826829.26209756 1.14662195.39501219 1.34319512.39501219.14696341 0 .64503658-.15541463 1.48939024-.4652561.79847561-.28734146 1.47237805-.40631707 2.02445125-.35945121 1.4959756.1207317 2.619878.71045121 3.367317 1.77289024-1.3379268.81065854-1.9997561 1.94608537-1.9865853 3.40265854.0120731 1.13454873.4236585 2.07867073 1.232561 2.82830483.3665853.3479269.7759756.6168293 1.2314634.8078049-.0987805.2864634-.2030488.5608537-.3139025.8242683zM11.3169512.46536585c0 .88925488-.324878 1.71954878-.972439 2.48806098-.78146342.91360976-1.72668293 1.44153658-2.75169513 1.35823171-.01306097-.10668293-.02063414-.21896342-.02063414-.33695122 0-.85368293.37163414-1.76729269 1.03159756-2.51429269.3294878-.37821951.74853658-.69270365 1.25670731-.94357317.5070732-.24712683.9867073-.38379512 1.4378049-.40719512.0131707.11887683.0186585.23776464.0186585.35570854v.00001097z"/>
    </symbol>
    <symbol id="centos" viewBox="0 0 18 18">
      <path
        d="M6.76046668 2.80218148L6.56265579 3H8.1667441v-.19781852H6.76046668zm-.56255444 0H6L8.81698703 0l.09097016.0920459L9 0l2.9998997 3H15v3l.1976903.19769027V6L18 8.81694267l-.0920695.09098786L18 9l-3 3.0001003V15h-3l-.1978317.1978317H12L9.18301297 18l-.09096767-.0920453L9 18l-3-3H3v-3l-.19780531-.1978053V12L0 9.18315471l.09211233-.09104238L0 9l3-2.99994983V3h3.00010033l.19781191-.19781852zm5.04170746 0H9.46722996V3h1.97020834l-.1978186-.19781852zM15 6.56256173v1.60414825h.1976903V6.760252L15 6.56256173zm.1976903 4.67727267V9.46717536H15v1.97035694l.1976903-.1976979zM11.4375323 15H9.83339764v.1978317H11.239693L11.4375323 15zm-4.67713883.1978317h1.77237657V15H6.56256173l.19783174.1978317zM3 11.4374383V9.83339764h-.19780531V11.239633L3 11.4374383zm-.19780531-4.67707126v1.772403H3V6.56256173l-.19780531.19780531zm6.19338492 1.11023021L9 7.87501764l.41690206-.41688597v-.01052452l-.42132245.4229901zm.42132245.15008006L9 8.43757937l-.40620989-.40620989v.55174654h-.57303812L8.43764992 9l-.40621353.40622711h.55160889v.57328934L9 9.56256173l.40620989.40620989v-.55191397h.57319555L9.56256173 9l.40613902-.40613902h-.55179869v-.57318367zm.71248204.97492113L10.1249824 9l.4168576.41685765h.0105212l-.4229771-.42125921zM9.00430769 10.129431L9 10.1251235l-.41695472.4169547v.0103264l.42126241-.4229736zM7.87056436 9.00445345L7.87501764 9l-.41690007-.41688398h-.01046816l.42291495.42133743z"/>
    </symbol>
    <symbol id="telegram" viewBox="0 0 32 32">
      <path
        d="M16 32C7.16344 32 0 24.836556 0 16S7.16344 0 16 0s16 7.163444 16 16-7.16344 16-16 16zm-2.66096-12.7456695l-.00011-.0000638-.27226 4.0790666c.4 0 .57673-.1829333.8-.4l1.9218-1.8687171 3.9982 2.9539171c.7358.4059867 1.26685.1957867 1.45013-.6831333l2.62467-12.3684c.26872-1.07736-.41068-1.566-1.11459-1.2464267l-15.412 5.9428c-1.05201.42196-1.04588 1.00888-.19176 1.2704l3.95507 1.23444 9.1564-5.7766666c.43225-.26212.82897-.1211987.50336.1677866l-7.41891 6.6949972z"/>
    </symbol>
    <symbol id="slack" viewBox="0 0 32 32">
      <path
        d="M16 32C7.16344 32 0 24.836556 0 16S7.16344 0 16 0s16 7.163444 16 16-7.16344 16-16 16zm-4.70564-13.2460141v-1.8577061H9.43665c-1.02245 0-1.8577.8352477-1.8577 1.8577061 0 1.0224585.83525 1.8577062 1.8577 1.8577062 1.02246 0 1.85771-.8352477 1.85771-1.8577062zm.93605 0v4.6514658c0 1.0224585.83525 1.8577062 1.85771 1.8577062s1.85771-.8352477 1.85771-1.8577062v-4.6514658c0-1.0224584-.83525-1.8577061-1.85771-1.8577061s-1.85771.8352477-1.85771 1.8577061zm1.85771-7.4596262h1.85771V9.4366535c0-1.0224584-.83525-1.8577061-1.85771-1.8577061s-1.85771.8352477-1.85771 1.8577061c0 1.0224584.83525 1.8577062 1.85771 1.8577062zm0 .9360535H9.43665c-1.02245 0-1.8577.8352477-1.8577 1.8577061 0 1.0224584.83525 1.8577062 1.8577 1.8577062h4.65147c1.02246 0 1.85771-.8352478 1.85771-1.8577062s-.83525-1.8577061-1.85771-1.8577061zm7.45963 1.8577061v1.8577062h1.8577c1.02246 0 1.85771-.8352478 1.85771-1.8577062s-.83525-1.8577061-1.85771-1.8577061-1.8577.8352477-1.8577 1.8577061zm-.93606 0V9.4366535c0-1.0224584-.83525-1.8577061-1.8577-1.8577061-1.02246 0-1.85771.8352477-1.85771 1.8577061v4.6514658c0 1.0224584.83525 1.8577062 1.85771 1.8577062 1.02245 0 1.8577-.8352478 1.8577-1.8577062zm-1.8577 7.4596263h-1.85771v1.8577061c0 1.0224585.83525 1.8577062 1.85771 1.8577062 1.02245 0 1.8577-.8352477 1.8577-1.8577062 0-1.0224584-.83525-1.8577061-1.8577-1.8577061zm0-.9360535h4.65146c1.02246 0 1.85771-.8352477 1.85771-1.8577062 0-1.0224584-.83525-1.8577061-1.85771-1.8577061h-4.65146c-1.02246 0-1.85771.8352477-1.85771 1.8577061 0 1.0224585.83525 1.8577062 1.85771 1.8577062z"/>
    </symbol>
    <symbol id="docker" viewBox="0 0 32 32">
      <path
        d="M16 32C7.16344 32 0 24.836556 0 16S7.16344 0 16 0s16 7.163444 16 16-7.16344 16-16 16zm-5.57493-12.2311306c0-.5661612.4517-1.0302889 1.05357-1.0302889.60066 0 1.05357.4641277 1.05357 1.0302889 0 .5661611-.50257 1.0302889-1.05357 1.0302889-.55221 0-1.05357-.4641278-1.05357-1.0302889zm13.9834-4.5815504c-.10899-.8249777-.6055-1.4931723-1.25944-2.009561l-.25431-.2065555-.20587.2575722c-.39963.4641277-.55706 1.2878611-.50862 1.9037947.04844.465372.19376.9282554.44807 1.2891054-.20587.1032777-.46018.2065555-.65394.3085889-.46018.1542945-.90825.2065555-1.35632.2065555H7.66157l-.04844.308589c-.09688.9792721.04844 2.0083167.45413 2.9365722l.20102.3608499v.0497725c1.211 2.0605777 3.36658 2.9863446 5.71592 2.9863446 4.51702 0 8.22267-2.0070725 9.97862-6.3335392 1.15045.052261 2.31301-.2575722 2.85796-1.3898946l.14531-.2575722-.24219-.1542945c-.65394-.4106224-1.55008-.4641277-2.3009-.2575722l-.01453.0012443zm-8.42734-.8249777v2.0095611h1.96182V14.361097l-1.96182.0012443zm0-2.5234612v2.0070725h1.96182v-2.0058282l-1.96182-.0012443zm0-2.5757222v2.0070724h1.96182V9.2644022l-1.96182-.0012443zm2.40989 5.0991834v2.0095611h1.95455V14.361097l-1.95455.0012443zm-7.26599 0v2.0095611h1.95455V14.361097l-1.95455.0012443zm4.39471 0h-1.9376v2.0095611h1.94971V14.361097l-.01211.0012443zm-4.86821 0H8.71514v2.0095611h1.96182V14.361097l-.02543.0012443zm4.86821-2.5234612h-1.9376v2.0070725h1.94971v-2.0058282l-.01211-.0012443zm-2.45833 0h-1.93759v2.0070725h1.9497v-2.0058282l-.01211-.0012443z"/>
    </symbol>
    <symbol id="github" viewBox="0 0 32 32">
      <path
        d="M29.85371 8.1685484c-1.43077-2.5129162-3.37151-4.5023954-5.82273-5.9688865C21.57938.733096 18.90297 0 15.99985 0c-2.90275 0-5.58004.7333203-8.03112 2.1996619-2.45144 1.4664163-4.39211 3.4559703-5.82288 5.9688865C.71531 10.6813898 0 13.4254321 0 16.4006004c0 3.5738521 1.01718 6.7875515 3.05205 9.6419209 2.03465 2.8545938 4.66312 4.8298614 7.88518 5.9260273.37506.0713573.65271.0211678.83323-.149297.1806-.1706892.27079-.3844621.27079-.6404211 0-.0427097-.00358-.4269475-.01051-1.153162-.00715-.7262145-.01051-1.3597542-.01051-1.9003199l-.47918.0849706c-.30552.0573701-.69094.0816795-1.15626.0747981-.4651-.0066571-.94793-.0566222-1.44784-.1495214-.50012-.0920764-.9653-.3056249-1.39588-.6401967-.43037-.3345718-.73589-.7725146-.91649-1.3131551l-.20832-.4914233c-.13886-.3271668-.35747-.6906107-.65613-1.0889853-.29866-.3987485-.60068-.6690688-.9062-.8114095l-.14586-.107036c-.0972-.071133-.18739-.1569264-.27079-.2564826-.08333-.0995563-.14572-.1991873-.18738-.298968-.04174-.0998554-.00715-.1817593.10412-.2460108.11128-.0642516.31238-.0954424.60418-.0954424l.41651.0638028c.27779.0570709.6214.2275357 1.03126.5124416.40964.2846815.74639.6547824 1.01032 1.1101531.3196.5838738.70466 1.0287727 1.15626 1.3349212.45123.3061486.90619.458961 1.36443.458961s.85402-.0356038 1.18749-.1064376c.3331-.0712078.64562-.1782438.93743-.3205098.12499-.9542738.46531-1.6873698 1.02068-2.1998114-.79156-.0852698-1.50322-.2136981-2.13535-.3844621-.63176-.1709884-1.28461-.4484893-1.95811-.8332506-.67386-.3842377-1.23287-.8613747-1.67718-1.430588-.44437-.5695126-.80907-1.3171942-1.09357-2.2423716-.28465-.9255514-.42701-1.9932192-.42701-3.2033025 0-1.7229737.54872-3.1891656 1.64594-4.3993985-.51399-1.2953531-.46546-2.7474829.14572-4.35624.40279-.1282787 1.00011-.0320135 1.79167.288197.79171.3203602 1.37137.5947943 1.73956.8223301.3682.2274609.66321.4202156.88548.5765436 1.2919-.3700261 2.62511-.5550766 3.99998-.5550766s2.70837.1850505 4.00034.5550766l.79164-.5122921c.54135-.3418272 1.18063-.6550815 1.9163-.9398378.7361-.2846067 1.29898-.3629951 1.68805-.2347164.62475 1.6088319.68043 3.0608869.16629 4.35624 1.09715 1.2102329 1.6461 2.6767988 1.6461 4.3993985 0 1.2100833-.14288 2.281117-.42709 3.2137742-.28458.9328068-.65241 1.6797404-1.10365 2.2423716-.45174.5625563-1.01433 1.0359533-1.68783 1.4201163-.67364.3844621-1.32671.661963-1.95847.8329514-.63205.1709884-1.34371.2994915-2.13527.3849109.72195.6404211 1.08299 1.6513171 1.08299 3.0322392v4.5056118c0 .255959.08684.4696571.26065.6404211.17359.1704648.44773.2206543.82279.1492222 3.2225-1.0960162 5.85097-3.0713587 7.88555-5.9259525C30.98246 23.1875535 32 19.9738541 32 16.400002c-.00073-2.9747943-.7164-5.7186122-2.14629-8.2314536z"/>
    </symbol>
    <symbol id="logo">
      <path
        d="M46.08 24.24c-3.32 0-6.2-2.2-6.2-6.64 0-4.36 3-6.84 6.28-6.84 1.72 0 3.12.8 4.04 1.72l-1.8 2.2c-.64-.56-1.28-.96-2.16-.96-1.52 0-2.84 1.4-2.84 3.76 0 2.44 1.12 3.8 2.8 3.8 1 0 1.8-.52 2.36-1.12l1.8 2.16c-1.1 1.28-2.6 1.92-4.28 1.92zm9.22-5.66h2.4l-.22-.9c-.32-1.24-.64-2.82-.96-4.12h-.08c-.28 1.32-.6 2.88-.92 4.12l-.22.9zM58.96 24l-.64-2.76h-3.64L54.04 24h-3.52l3.96-13h4.16l3.96 13h-3.64zm8.32-10.28v3.2h1.24c1.36 0 2.08-.6 2.08-1.72s-.72-1.48-2.08-1.48h-1.24zM74.68 24h-3.84l-2.24-4.36h-1.32V24h-3.44V11h4.92c2.8 0 5.2.96 5.2 4.2 0 1.86-.84 3.08-2.1 3.76L74.68 24zm5.2-10.28v3.2h1.24c1.36 0 2.08-.6 2.08-1.72s-.72-1.48-2.08-1.48h-1.24zM87.28 24h-3.84l-2.24-4.36h-1.32V24h-3.44V11h4.92c2.8 0 5.2.96 5.2 4.2 0 1.86-.84 3.08-2.1 3.76L87.28 24zm1.76 0V11h3.44v13h-3.44zm6.32 0V11h8.4v2.88H98.8v2.04h4.24v2.88H98.8v2.32h5.16V24h-8.6zm14.56-10.28v3.2h1.24c1.36 0 2.08-.6 2.08-1.72s-.72-1.48-2.08-1.48h-1.24zm7.4 10.28h-3.84l-2.24-4.36h-1.32V24h-3.44V11h4.92c2.8 0 5.2.96 5.2 4.2 0 1.86-.84 3.08-2.1 3.76l2.82 5.04z"/>
      <path
        d="M.0009 8.881v17.762l3.541 2.044V10.926l8.883-5.13-3.541-2.044zM15.3819-.0002l-3.538 2.043 5.164 2.981-.002.002 10.218 5.9v10.274l3.541-2.044V8.8808zM25.5987 25.5571l-.008-.015-10.209 5.894-8.88-5.128v4.088l8.88 5.128 15.383-8.881v-4.069z"/>
      <path
        d="M10.1919 20.76v-5.995l5.19-2.997 5.168 2.984-2.863 1.677-2.305-1.331-2.306 1.332v2.665l2.306 1.332 2.305-1.331 2.863 1.677-5.168 2.984-5.19-2.997zm5.19-12.227l-7.992 4.615v9.229l7.992 4.614 7.994-4.614v-9.229l-7.994-4.615z"/>
    </symbol>
    <symbol id="video-play">
      <path
        d="M40 80C17.90861 80 0 62.09139 0 40S17.90861 0 40 0s40 17.90861 40 40-17.90861 40-40 40zm19.1489362-39.5833333l-31.4893617-17.5v35l31.4893617-17.5z"/>
    </symbol>
  </defs>
</svg>
