<svg xmlns="http://www.w3.org/2000/svg" width="29" height="29"><g fill="none" fill-rule="evenodd"><path d="M-1 0h29v29H-1z"/><path fill="#5712B0" d="M13.5 0l12.5573684 7.25v14.5L13.5 29 .94263165 21.75V7.25z"/><path fill="#FFF" d="M13.4991868 7L20 10.7504063v7.5L13.4991868 22 7 18.2504063v-7.5L13.4991868 7zm-4.220568 9.936342l4.220568 2.4355293 4.2026773-2.4249648-2.3282247-1.3628237-1.8744526 1.0816448-1.8752659-1.0824575v-2.1657276l1.8752659-1.0824574 1.8744526 1.0816448 2.3282247-1.3628237-4.2026773-2.42496482-4.220568 2.43552932v4.8718713z"/><path fill="#FFF" d="M.94263165 7.25v14.5l2.85012878 1.6394626V8.89026469l7.26270137-4.21547465-2.85012882-1.6394626zM13.5 0l-2.80482 1.63825472 12.55499 7.25160377v8.23858491l2.8071984-1.6390566V7.25zM13.5 25.8432432l-6.95379796-3.9598455v3.1567567L13.5 29l12.5573684-7.25v-3.1420849z"/></g></svg>